<?xml version="1.0" encoding="utf-8"?><svg width="500" height="335" viewBox="0 0 500 335" xmlns="http://www.w3.org/2000/svg" xmlns:xlink="http://www.w3.org/1999/xlink"><svg width="50" height="50" viewBox="0 0 50 50" id="alarmclock" x="450" y="235" xmlns="http://www.w3.org/2000/svg"><path d="M34.457 25.066h-6.14a3.432 3.432 0 0 0-2.458-2.457v-8.722a.86.86 0 0 0-1.719 0v8.722a3.435 3.435 0 0 0-2.581 3.317A3.44 3.44 0 0 0 25 29.363a3.431 3.431 0 0 0 3.316-2.578h6.141c.477 0 .86-.383.86-.86a.857.857 0 0 0-.86-.859zM25 27.645a1.719 1.719 0 1 1 0-3.438 1.719 1.719 0 0 1 0 3.438zm0 0"/><path d="M43.152 8.395l3.52 3.523c.164.16.383.25.61.25.226 0 .445-.09.609-.25a6.99 6.99 0 0 0 0-9.875 6.99 6.99 0 0 0-9.875 0 .845.845 0 0 0-.254.605c0 .23.09.45.254.61l3.922 3.922-1.461 1.46A23.12 23.12 0 0 0 25 2.71c-5.941 0-11.363 2.247-15.473 5.93L8.063 7.18l3.921-3.922a.847.847 0 0 0 .254-.61.845.845 0 0 0-.254-.605 6.99 6.99 0 0 0-9.875 0 6.99 6.99 0 0 0 0 9.875c.164.16.383.25.61.25.226 0 .445-.09.61-.25l3.519-3.523 1.441 1.44c-4.023 4.177-6.504 9.849-6.504 16.09 0 8.512 4.606 15.962 11.453 20.005l-2.601 2.601a.856.856 0 0 0 0 1.219.861.861 0 0 0 1.215 0l2.964-2.969A23.08 23.08 0 0 0 25 49.141c3.648 0 7.105-.852 10.184-2.36l2.964 2.969a.87.87 0 0 0 .61.25.868.868 0 0 0 .605-.25.863.863 0 0 0 0-1.219l-2.601-2.601c6.847-4.043 11.453-11.492 11.453-20.004 0-6.242-2.48-11.914-6.504-16.09zm3.52-5.137c1.848 1.844 2.031 4.73.558 6.785l-7.343-7.344c2.054-1.472 4.941-1.289 6.785.559zM2.77 10.043c-1.473-2.055-1.29-4.941.558-6.785a5.273 5.273 0 0 1 6.785-.559zM25 47.422c-11.852 0-21.496-9.645-21.496-21.496C3.504 14.074 13.148 4.43 25 4.43c11.852 0 21.496 9.644 21.496 21.496 0 11.851-9.644 21.496-21.496 21.496zm0 0"/><path d="M42.094 16a19.888 19.888 0 0 0-7.168-7.168c-.016-.008-.024-.023-.04-.031-.015-.012-.03-.012-.046-.02A19.673 19.673 0 0 0 25 6.148c-3.582 0-6.941.961-9.84 2.633-.015.008-.031.008-.047.02-.015.008-.023.023-.039.031A19.919 19.919 0 0 0 7.906 16c-.008.016-.023.023-.031.04-.008.01-.008.03-.016.046a19.633 19.633 0 0 0-2.632 9.84c0 3.582.96 6.941 2.632 9.84.008.015.008.03.016.047.012.023.027.039.043.058a19.955 19.955 0 0 0 7.156 7.149c.016.007.024.023.04.03.023.016.046.02.066.032A19.701 19.701 0 0 0 25 45.699a19.69 19.69 0 0 0 9.82-2.617c.02-.012.047-.016.067-.031.015-.008.023-.024.039-.031a19.925 19.925 0 0 0 7.156-7.149c.016-.02.031-.035.043-.059.012-.015.012-.03.016-.046a19.647 19.647 0 0 0 2.636-9.84c0-3.582-.965-6.942-2.636-9.84-.008-.016-.004-.031-.016-.047-.008-.016-.023-.023-.031-.039zm-7.34 25.098l-.41-.711a.861.861 0 0 0-1.492.86l.414.714a17.927 17.927 0 0 1-7.407 1.977v-.817a.86.86 0 0 0-1.719 0v.816a17.927 17.927 0 0 1-7.406-1.976l.414-.715a.854.854 0 0 0-.316-1.172.855.855 0 0 0-1.172.313l-.41.71a18.2 18.2 0 0 1-5.422-5.417l.711-.41a.866.866 0 0 0 .316-1.176.862.862 0 0 0-1.175-.317l-.711.414a17.93 17.93 0 0 1-1.98-7.406h.816c.476 0 .86-.383.86-.86a.857.857 0 0 0-.86-.859h-.817c.125-2.66.82-5.168 1.977-7.406l.715.414a.839.839 0 0 0 .425.113c.301 0 .586-.152.747-.43a.856.856 0 0 0-.313-1.171l-.71-.414a18.186 18.186 0 0 1 5.417-5.418l.41.71c.16.274.45.43.746.43.145 0 .293-.039.43-.117a.856.856 0 0 0 .313-1.172l-.41-.714a17.927 17.927 0 0 1 7.406-1.977v.816a.86.86 0 0 0 1.718 0v-.816c2.657.125 5.164.82 7.403 1.977l-.41.714a.856.856 0 0 0 .312 1.172.868.868 0 0 0 .43.118.867.867 0 0 0 .746-.43l.41-.711a18.141 18.141 0 0 1 5.418 5.418l-.707.41a.86.86 0 1 0 .86 1.488l.71-.41a17.93 17.93 0 0 1 1.98 7.406h-.816a.86.86 0 0 0 0 1.719h.817a17.912 17.912 0 0 1-1.98 7.402l-.712-.41a.862.862 0 0 0-1.175.317.855.855 0 0 0 .316 1.172l.707.41a18.141 18.141 0 0 1-5.414 5.422zm0 0"/></svg><svg width="50" height="50" viewBox="0 0 50 50" id="badtenant" x="350" y="235" xmlns="http://www.w3.org/2000/svg"><path d="M36.113 19.043c-2.386 4.152-6.422 7.363-11.113 7.363s-8.727-3.21-11.113-7.36c-4.79 2.27-8.11 7.134-8.11 12.786V44.43a4.842 4.842 0 0 0 4.84 4.843h28.758a4.841 4.841 0 0 0 4.848-4.843V31.832c0-5.652-3.32-10.52-8.11-12.789zm-3.851 22.305a2.065 2.065 0 0 1 0 2.93c-.403.406-.934.609-1.465.609a2.046 2.046 0 0 1-1.461-.61L25 39.941l-4.336 4.336a2.068 2.068 0 0 1-2.93 0 2.072 2.072 0 0 1 0-2.93l4.336-4.331-4.336-4.336a2.072 2.072 0 0 1 2.93-2.93L25 34.086l4.336-4.336a2.068 2.068 0 0 1 2.926 0 2.065 2.065 0 0 1 0 2.93l-4.332 4.336zm0 0"/><path d="M25 23.148c5.617 0 10.168-6.64 10.168-12.253C35.168 5.277 30.618.727 25 .727a10.166 10.166 0 0 0-10.168 10.168c0 5.617 4.55 12.253 10.168 12.253zm0 0"/></svg><svg width="50" height="50" viewBox="0 0 50 50" id="burden" x="150" y="285" xmlns="http://www.w3.org/2000/svg"><path d="M7.957 48.555c-.508-.508-.664-.828-.664-1.364 0-.793 4.477-11.527 5.035-12.066.184-.18 1.871-.906 3.746-1.613 1.875-.711 3.473-1.356 3.547-1.434.336-.355 1.57-4.832 1.5-5.441-.043-.364-.055-.66-.023-.66.027 0 .894.449 1.925 1 2.004 1.07 2.075 1.082 4.582.617.653-.121.66-.133.196-.266-.27-.078-.914-.148-1.434-.16-.808-.016-1.594-.36-5.469-2.383-2.488-1.297-4.671-2.492-4.855-2.656-.754-.672-.594-2.313.305-3.16.578-.543 3.199-.922 5.007-.723 1.215.133 1.29.176 1.758.922.27.434 1.032 1.305 1.692 1.941.664.637 1.144 1.157 1.074 1.153-.07 0-.828-.219-1.68-.485-.851-.265-1.578-.453-1.61-.418-.034.032.821.524 1.9 1.086l1.96 1.028 4.707.746c3.817.61 4.785.824 5.102 1.144.535.535.492 1.575-.086 2.043-.395.32-.692.344-2.797.235-1.293-.07-2.582-.168-2.867-.223l-.512-.094-.082 3.184c-.094 3.746-.25 4.234-1.43 4.586-.43.129-3.558.902-6.953 1.722l-6.172 1.489-2.027 4.82c-2.262 5.379-2.73 6.094-3.988 6.094-.563 0-.871-.149-1.387-.664zm21.98.015c-3.308-2.015-8.558-5.511-9.023-6.008-.676-.726-.691-1.484-.066-3.023l.468-1.148 2.899-.735c1.598-.402 3.058-.734 3.25-.738.265-.004.074.398-.852 1.773-.894 1.336-1.136 1.836-.968 2.004.12.121 1.863 1.285 3.875 2.582 3.351 2.168 3.675 2.426 3.93 3.149.35.996.042 1.883-.848 2.426-.856.52-1.454.457-2.664-.282zM32 22.922c-3.695-.559-7.047-2.965-8.547-6.125C18.91 7.207 28.707-2.602 38.27 1.96c1.964.937 3.949 2.926 4.93 4.934.905 1.859 1.202 3.117 1.202 5.085 0 5.786-4.554 10.579-10.39 10.942-.785.05-1.692.047-2.012 0zm-2.71-4.637c.51-.644.542-.656 1.17-.39.825.343 2.247.347 3.063.003.852-.355 1.832-1.511 2.09-2.464.282-1.043-.004-2.067-.898-3.239l-.692-.906 1.93-2.922.2.57c.109.317.156.973.1 1.461-.089.801-.05.926.419 1.23.742.49 1.394.153 1.668-.855.113-.425.168-.89.125-1.035a12.049 12.049 0 0 1-.203-.8c-.063-.293-.395-.848-.73-1.235-.614-.7-.618-.703-.274-1.281.633-1.07-.176-1.621-.953-.652-.395.492-.41.496-1.254.195-1.14-.402-1.692-.38-2.703.11-.621.3-1.012.687-1.442 1.417-.77 1.32-.695 2.258.301 3.762l.723 1.086-1.028 1.562c-.949 1.45-1.047 1.54-1.3 1.203-.204-.27-.243-.71-.153-1.765.117-1.348.102-1.422-.363-1.727-.617-.402-1.05-.316-1.516.305-.843 1.133-.605 3.02.547 4.293l.684.758-.45.797c-.394.687-.413.82-.16.984.442.285.528.25 1.098-.465zm1.69-2.008c-.16-.062.09-.586.739-1.547.535-.796 1.015-1.449 1.062-1.449.176 0 .684 1.164.684 1.567 0 .62-1.031 1.562-1.695 1.543-.301-.008-.66-.059-.79-.114zm1.93-6.422c-.324-.714-.281-1.14.18-1.722.297-.38.582-.516 1.074-.516.367 0 .668.094.668.207 0 .196-1.512 2.528-1.637 2.528-.03 0-.16-.223-.285-.497zM10.156 20.81c-2.883-1.028-3.351-4.98-.8-6.727.98-.672 2.566-.762 3.703-.21 2.37 1.144 2.804 4.44.812 6.19-.687.602-1.781 1.036-2.574 1.024-.215-.008-.73-.129-1.14-.277zm0 0"/></svg><svg width="50" height="50" viewBox="0 0 50 50" id="business-down-bars-graphic" x="410" y="160" xmlns="http://www.w3.org/2000/svg"><path d="M50 46.875V50H0V0h3.125v46.875zm-5.262-17.543l-4.406-11.656-2.957 3.613L11.352 0 9.375 2.422l26.02 21.289-2.958 3.613zM9.375 6.457V43.75h6.25V11.57zm9.375 7.672V43.75H25V19.242zm9.375 15.656V43.75h6.25V30.809zm9.375 1.531V43.75h6.25V32.336zm0 0"/></svg><svg width="50" height="50" viewBox="0 0 50 50" id="closing" y="235" xmlns="http://www.w3.org/2000/svg"><path d="M.02 5.484V38.27h20.296V5.484zm1.562 31.223V7.047h17.172v29.66zm0 0"/><path d="M12.117 0v4.734h1.543V1.543h27.367v46.914H13.66v-9.363h-1.543V50H42.57V0zm0 0"/><path d="M32.387 3.91h6.273v1.543h-6.273zm0 0M23.023 11.008h1.543v1.543h-1.543zm0 0M26.215 11.008H38.66v1.543H26.215zm0 0M23.023 14.094h1.543v1.543h-1.543zm0 0M26.215 14.094H38.66v1.543H26.215zm0 0M23.023 17.18h1.543v1.543h-1.543zm0 0M26.215 17.18H38.66v1.543H26.215zm0 0M23.023 20.371h1.543v1.543h-1.543zm0 0M26.215 20.371H38.66v1.543H26.215zm0 0M23.023 23.457h1.543V25h-1.543zm0 0M26.215 23.457H38.66V25H26.215zm0 0M23.023 26.543h1.543v1.543h-1.543zm0 0M26.215 26.543H38.66v1.543H26.215zm0 0M23.023 29.734h1.543v1.543h-1.543zm0 0M26.215 29.734H38.66v1.543H26.215zm0 0M23.023 32.82h1.543v1.543h-1.543zm0 0M26.215 32.82H38.66v1.543H26.215zm0 0M28.477 36.727h2.367v1.546h-2.367zm0 0M32.387 36.727h6.273v1.546h-6.273zm0 0M28.477 39.094h2.367v1.543h-2.367zm0 0M32.387 39.094h6.273v1.543h-6.273zm0 0M32.387 41.36h6.273v1.542h-6.273zm0 0M16.027 45.266h8.54v1.547h-8.54zm0 0M43.395 13.266v7.824h1.542v-6.27l1.137.004V38.27h3.906V13.293zm5.023 23.441h-.781V14.852h.781zm0 0M46.07 8.64v3.91h1.543v-2.366h.825v2.367h1.542V8.64zm0 0M48.438 41.36v1.484l-.352 1.21-.473-1.242V41.36H46.07v1.735l1.137 2.996h1.895l.878-3.028V41.36zm0 0M46.07 39.094h3.907v1.543H46.07zm0 0M2.363 7.828V25h15.614V7.828zm14.051 15.61H3.926V9.386h12.488zm0 0M2.758 26.543H4.3v1.543H2.758zm0 0M5.844 26.543h1.543v1.543H5.844zm0 0M9.031 26.543h1.543v1.543H9.031zm0 0M12.117 26.543h1.543v1.543h-1.543zm0 0M2.758 28.91H4.3v1.543H2.758zm0 0M5.844 28.91h1.543v1.543H5.844zm0 0M9.031 28.91h1.543v1.543H9.031zm0 0M12.117 28.91h1.543v1.543h-1.543zm0 0M2.758 31.277H4.3v1.543H2.758zm0 0M5.844 31.277h1.543v1.543H5.844zm0 0M9.031 31.277h1.543v1.543H9.031zm0 0M12.117 31.277h1.543v1.543h-1.543zm0 0M2.758 33.64H4.3v1.544H2.758zm0 0M5.844 33.64h1.543v1.544H5.844zm0 0M9.031 33.64h1.543v1.544H9.031zm0 0M12.117 33.64h1.543v1.544h-1.543zm0 0M15.203 26.543h1.543v3.91h-1.543zm0 0M15.203 31.277h1.543v3.907h-1.543zm0 0"/><path d="M9.031 10.184h1.543v1.543H9.031zm0 0M11.297 10.184h1.644v1.543h-1.644zm0 0M13.66 10.184h1.543v1.543H13.66zm0 0"/></svg><svg width="50" height="50" viewBox="0 0 50 50" id="codeviolations" x="50" y="235" xmlns="http://www.w3.org/2000/svg"><path d="M22.238 20.383h-.687v-2.23h1.75a.798.798 0 0 0 0-1.594h-1.75v-.903a.794.794 0 0 0-.797-.793.794.794 0 0 0-.797.793v.903h-.691a1.86 1.86 0 0 0-1.856 1.859v1.7c0 1.023.832 1.855 1.856 1.855h.691v2.23h-1.75a.795.795 0 0 0-.797.797c0 .441.356.797.797.797h1.75v.902a.798.798 0 0 0 1.594 0v-.902h.687c1.028 0 1.86-.836 1.86-1.86v-1.699a1.858 1.858 0 0 0-1.86-1.855zm-2.281 0h-.691a.265.265 0 0 1-.262-.266v-1.699c0-.145.117-.266.262-.266h.691zm2.547 3.555a.263.263 0 0 1-.266.265h-.687v-2.226h.687c.149 0 .266.117.266.261zm0 0"/><path d="M49.766 21.148l-3.602-3.601a.792.792 0 0 0-1.125 0l-3.531 3.531V.797A.795.795 0 0 0 40.71 0H.797A.795.795 0 0 0 0 .797v38.64a.798.798 0 0 0 1.594 0V1.594h38.32v21.078l-5.777 5.777h-1.973V13.906h2.602a.795.795 0 0 0 .797-.797v-2.546a.795.795 0 0 0-.797-.797h-3.164L21.184 3.098a.796.796 0 0 0-.86 0L9.906 9.766H6.742a.795.795 0 0 0-.797.796v2.547c0 .442.356.797.797.797h2.602V28.45H6.742a.795.795 0 0 0-.797.797v2.547c0 .441.356.797.797.797h23.254l-5.953 5.95c0 .003 0 .003-.004.007a.781.781 0 0 0-.21.328l-1.802 5.406c-.203.61.395 1.211 1.004 1.008l5.407-1.8a.843.843 0 0 0 .332-.216l.007-.007 4.875-4.97a.792.792 0 0 0-.011-1.124.796.796 0 0 0-1.125.008l-4.309 4.394-2.473-2.469 16.84-16.84 2.477 2.477-9.04 9.035a.804.804 0 0 0 0 1.13.8.8 0 0 0 1.126 0l2.777-2.778v8.637h-6.848a.794.794 0 0 0-.793.797v6.843H1.593v-4.722a.798.798 0 0 0-1.593 0v5.52c0 .44.355.796.797.796h32.27c.21 0 .417-.086.566-.234l7.64-7.641a.808.808 0 0 0 .235-.566V30.535l8.258-8.258a.797.797 0 0 0 0-1.129zM26.75 42.371l-2.71.902.901-2.707zM20.754 4.715l7.894 5.05H12.86zM7.539 12.313v-.954h26.43v.954zm23.035 1.593V28.45h-2.656V13.906zm-4.246 0V28.45H15.18V13.906zm-12.738 0V28.45h-2.656V13.906zm17.996 17.09H7.539v-.953h25.004zm2.277 16.285v-4.926h4.926zm12.313-23.668l-2.477-2.476 1.903-1.903 2.476 2.48zm0 0"/><path d="M20.328 39.492H10.137a.794.794 0 1 0 0 1.59h10.191a.795.795 0 1 0 0-1.59zm0 0M21.18 43.738H10.137a.794.794 0 1 0 0 1.59H21.18a.794.794 0 0 0 0-1.59zm0 0M20.328 35.242H10.137a.797.797 0 0 0 0 1.594h10.191a.798.798 0 0 0 0-1.594zm0 0"/></svg><svg width="50" height="50" viewBox="0 0 50 50" id="doublepayments" x="100" y="235" xmlns="http://www.w3.org/2000/svg"><path d="M49.672 28.504L35.504 17.672a.827.827 0 0 0-1.012 0L20.801 28.145l-9.504-6.336a.832.832 0 0 0-.926 0l-10 6.664a.839.839 0 0 0-.371.695v20c0 .46.371.832.832.832h48.336a.83.83 0 0 0 .832-.832v-20a.836.836 0 0 0-.328-.664zm-36.34 19.828h-5V36.668h5zm6.668 0h-5v-12.5a.83.83 0 0 0-.832-.832H7.5a.83.83 0 0 0-.832.832v12.5h-5V33.777l9.164-6.109L20 33.778zm0-16.555l-8.703-5.804a.832.832 0 0 0-.926 0l-8.703 5.804v-2.164l9.164-6.113L20 29.613zm28.332 16.555H21.668V33.746L35 23.551l13.332 10.195zm0-16.684L35.504 21.84a.827.827 0 0 0-1.012 0l-12.824 9.808v-2.07L35 19.383l13.332 10.195zm0 0"/><path d="M47.332.336a.833.833 0 0 0-.809-.324L35.687 1.91a.843.843 0 0 0-.628.508.84.84 0 0 0 .097.8l1.078 1.489-15.433 11.77-9.504-6.336a.832.832 0 0 0-.926 0l-10 6.668a.829.829 0 0 0-.25 1.12l2.5 4.169a.846.846 0 0 0 .531.382.82.82 0 0 0 .645-.12l7.035-4.692 9.54 6.36a.83.83 0 0 0 .956-.024l18.805-13.906.887 1.222a.831.831 0 0 0 1.422-.117l4.972-10a.83.83 0 0 0-.082-.867zm-5.77 8.89l-.574-.789a.839.839 0 0 0-.547-.335.821.821 0 0 0-.62.156L20.808 22.316l-9.512-6.343a.833.833 0 0 0-.926 0l-6.773 4.515-1.641-2.734 8.875-5.918 9.54 6.355c.292.2.683.188.968-.027L37.895 5.543a.834.834 0 0 0 .167-1.152l-.773-1.07 7.898-1.384zm0 0M46.668 15.832a1.666 1.666 0 1 1 1.664-1.664H50a3.327 3.327 0 0 0-2.5-3.215V9.168h-1.668v1.785a3.327 3.327 0 0 0-2.5 3.215 3.338 3.338 0 0 0 3.336 3.332A1.666 1.666 0 1 1 45 19.168h-1.668c0 1.547 1.066 2.84 2.5 3.215v1.785H47.5v-1.785c1.434-.375 2.5-1.668 2.5-3.215a3.338 3.338 0 0 0-3.332-3.336zm0 0M45 35H25a.83.83 0 0 0-.832.832v7.5c0 .461.371.836.832.836h20c.46 0 .832-.375.832-.836v-7.5A.83.83 0 0 0 45 35zm-14.168 7.5h-5v-5.832h5zm6.668 0h-5v-5.832h5zm6.668 0h-5v-5.832h5zm0 0M30.832 31.668H32.5v1.664h-1.668zm0 0M34.168 31.668h1.664v1.664h-1.664zm0 0M37.5 31.668h1.668v1.664H37.5zm0 0M16.668 0h10v1.668h-10zm0 0M13.332 0H15v1.668h-1.668zm0 0M10 0h1.668v1.668H10zm0 0M6.668 0h1.664v1.668H6.668zm0 0M10 3.332h10V5H10zm0 0M6.668 3.332h1.664V5H6.668zm0 0M3.332 3.332H5V5H3.332zm0 0M0 3.332h1.668V5H0zm0 0"/></svg><svg width="50" height="50" viewBox="0 0 50 50" id="for-rent" x="150" y="235" xmlns="http://www.w3.org/2000/svg"><path d="M17.086 14.441v1.52h2.945v1.316h-2.945v2.418h-1.668V13.13h4.867v1.312zm0 0M27.988 16.402c0 1.914-1.52 3.371-3.554 3.371-2.028 0-3.547-1.445-3.547-3.37 0-1.915 1.52-3.329 3.547-3.329 2.035 0 3.554 1.426 3.554 3.328zm-5.394.012c0 1.106.855 1.961 1.86 1.961 1.01 0 1.816-.855 1.816-1.96 0-1.11-.805-1.942-1.817-1.942-1.015 0-1.86.832-1.86 1.941zm0 0M32.086 17.848h-1.313v1.847h-1.668V13.13h2.934c1.738 0 2.73.824 2.73 2.289 0 1.004-.421 1.727-1.19 2.113l1.378 2.164h-1.895zm-.047-1.313c.723 0 1.145-.367 1.145-1.058 0-.688-.422-1.036-1.145-1.036h-1.266v2.094zm0 0M15.18 26.2h-1.317v1.847h-1.668V21.48h2.938c1.734 0 2.726.825 2.726 2.29 0 1.003-.422 1.726-1.191 2.109l1.379 2.168h-1.895zm-.047-1.313c.719 0 1.144-.367 1.144-1.063 0-.683-.425-1.031-1.144-1.031h-1.27v2.094zm0 0M20.89 22.793v1.305h3.133v1.312h-3.132v1.324h3.574v1.313h-5.242V21.48h5.14v1.313zm0 0M30.367 28.047l-3.023-4.043v4.043h-1.567V21.48h1.473l3.031 4.051v-4.05h1.559v6.566zm0 0M36.426 22.82v5.227h-1.668V22.82h-1.961V21.47h5.61v1.351zm0 0"/><path d="M50 6.188H30.512V0H19.488v6.188H0v28.75h19.488V50h11.024V34.937H50zM22.582 3.094h4.836v3.094h-4.836zm4.836 43.812h-4.836V34.938h4.836zm19.488-15.062H3.094V9.277h43.812zm0 0"/></svg><svg width="50" height="50" viewBox="0 0 50 50" id="givemoney" x="200" y="235" xmlns="http://www.w3.org/2000/svg"><path d="M37.406 15.375c-1.492-.602-1.926-.96-1.926-1.617 0-.524.399-1.133 1.516-1.133.988 0 1.746.39 1.754.39a.524.524 0 0 0 .746-.266l.27-.694a.427.427 0 0 0-.23-.551c-.61-.266-1.802-.473-1.813-.473-.02-.004-.086-.02-.086-.097l-.004-1.008c0-.301-.25-.547-.563-.547h-.488a.557.557 0 0 0-.562.547v1.058c0 .082-.086.118-.118.125-1.504.36-2.441 1.457-2.441 2.848 0 1.727 1.43 2.508 2.973 3.098 1.234.484 1.738.972 1.738 1.695 0 .785-.715 1.332-1.734 1.332-.872 0-2.055-.555-2.067-.559a.528.528 0 0 0-.734.293l-.258.7a.453.453 0 0 0 .23.57c.723.379 2.125.602 2.188.61.02.003.105.03.105.109v1.054c0 .305.25.551.563.551h.504a.555.555 0 0 0 .562-.55v-1.11c0-.102.078-.113.094-.117 1.602-.36 2.586-1.528 2.586-3 0-1.508-.84-2.485-2.805-3.258zm0 0"/><path d="M36.777 3.172c-7.3 0-13.218 5.918-13.218 13.223 0 7.3 5.918 13.218 13.218 13.218C44.082 29.613 50 23.695 50 16.395 50 9.09 44.082 3.172 36.777 3.172zm0 23.379c-5.609 0-10.156-4.547-10.156-10.156 0-5.61 4.547-10.157 10.156-10.157 5.61 0 10.16 4.547 10.16 10.157 0 5.609-4.55 10.156-10.16 10.156zm0 0M47.313 36.023c-2.81 1.551-6.676 2.985-10.536 3.59-3.43.54-9.882-.758-9.882-2.293 0-.578 5.66 1.434 9.085.52 2.625-.703 2.25-3.156.825-3.48-1.422-.325-9.742-3.372-13.293-3.477-1.676-.051-5.809.582-7.809.906-.683.113-1.113.102-1.156.758-.2 3.047-.59 9.277-.805 12.531-.004.067.09.992.856.344.832-.715 2.004-1.504 3.09-1.258 1.699.387 16.406 3.082 18.433 2.61 2.902-.676 11.117-5.544 12.695-7.06 2.442-2.343.543-4.82-1.504-3.69zm0 0M10.488 31.672l-7.703-.379c-.598-.031-1.203.418-1.351.996L.03 45.008c-.144.578.219 1.066.817 1.09h8.539a1.139 1.139 0 0 0 1.164-1.04l.937-12.253a1.053 1.053 0 0 0-1-1.133zM5.953 44.414a2.132 2.132 0 0 1-2.129-2.133 2.129 2.129 0 1 1 4.258 0 2.132 2.132 0 0 1-2.129 2.133zm0 0"/></svg><svg width="50" height="50" viewBox="0 0 50 50" id="goingdown" x="250" y="235" xmlns="http://www.w3.org/2000/svg"><path d="M50 46.875V50H0V0h3.125v46.875zm-5.262-17.543l-4.406-11.656-2.957 3.613L11.352 0 9.375 2.422l26.02 21.289-2.958 3.613zM9.375 6.457V43.75h6.25V11.57zm9.375 7.672V43.75H25V19.242zm9.375 15.656V43.75h6.25V30.809zm9.375 1.531V43.75h6.25V32.336zm0 0"/></svg><svg width="50" height="50" viewBox="0 0 50 50" id="hammer" x="300" y="235" xmlns="http://www.w3.org/2000/svg"><path d="M33.422 32.629l-2.188 2.191 2.192 2.192 15.886-15.887-2.19-2.191-2.188 2.187L28.19 4.383l2.192-2.192L28.188 0 12.3 15.887l2.195 2.191 2.188-2.187 7.273 7.273L.078 47.043l2.195 2.191 23.875-23.879zM26 6.574l16.738 16.742-7.12 7.122-16.74-16.739zm0 0"/><path d="M21.313 39.66V50h28.609V39.66zm25.507 7.238H24.414v-4.136H46.82zm0 0"/></svg><svg width="50" height="50" viewBox="0 0 50 50" id="housesale" x="360" y="160" xmlns="http://www.w3.org/2000/svg"><path d="M48 21.957L26.406 3.391a2.157 2.157 0 0 0-2.812 0L2 21.957a2.163 2.163 0 0 0-.227 3.047 2.159 2.159 0 0 0 3.043.23L25 7.875l20.184 17.36c.406.347.906.519 1.406.519.605 0 1.21-.254 1.637-.75A2.163 2.163 0 0 0 48 21.957zm0 0"/><path d="M25.707 10.902a1.08 1.08 0 0 0-1.414 0L8.023 24.938a1.075 1.075 0 0 0-.375.816V46.05c0 .597.485 1.078 1.082 1.078h32.54c.597 0 1.082-.48 1.082-1.078V25.754c0-.313-.137-.613-.375-.817zm-.703 32.723c-6.55 0-11.879-5.328-11.879-11.879 0-6.543 5.328-11.871 11.879-11.871 6.547 0 11.871 5.328 11.871 11.871 0 6.55-5.324 11.879-11.871 11.879zm0 0"/><path d="M26.781 30.297l-1.308-.766V25.11c.492 0 .992.36 1.172 1.215.152.742.355 1.328 1.324 1.328.742 0 1.234-.586 1.234-1.304 0-2.047-1.687-3.395-3.73-3.395v-.586c0-.36-.157-.605-.516-.605-.355 0-.516.246-.516.605v.586c-2.468.067-3.91 1.863-3.91 4.223 0 1.887.86 3.238 2.469 4.273l1.441.914v4.907c-.945-.098-1.394-.79-1.503-1.895-.118-1.035-.543-1.48-1.333-1.48-.851 0-1.234.718-1.234 1.527 0 2.273 1.711 4.008 4.07 4.008v1.722c0 .336.16.582.516.582.36 0 .516-.246.516-.582V39.43c2.648-.137 4.156-1.867 4.156-4.754 0-2.106-1.14-3.387-2.848-4.38zm-2.34-1.324c-1.097-.875-1.347-1.278-1.347-2.094 0-.942.449-1.606 1.347-1.77zm1.032 8.297v-4.368c.941.516 1.414 1.192 1.414 2.29 0 .992-.54 1.937-1.414 2.078zm0 0"/></svg><svg width="50" height="50" viewBox="0 0 50 50" id="listed" x="400" y="235" xmlns="http://www.w3.org/2000/svg"><path d="M13.32 5.473h8.703a.79.79 0 0 0 .793-.79.793.793 0 0 0-.793-.788H13.32a.793.793 0 0 0-.793.789c0 .437.356.789.793.789zm0 0M13.32 8.957h17.41a.79.79 0 0 0 0-1.578H13.32a.793.793 0 0 0-.793.789c0 .437.356.789.793.789zm0 0M13.32 19.813h8.703a.79.79 0 1 0 0-1.579H13.32a.79.79 0 1 0 0 1.578zm0 0M13.32 23.297h17.22c.437 0 .788-.352.788-.79a.787.787 0 0 0-.789-.788H13.32a.79.79 0 1 0 0 1.578zm0 0M13.32 34.152h8.703a.793.793 0 0 0 .793-.789.79.79 0 0 0-.793-.789H13.32a.79.79 0 0 0-.793.79c0 .433.356.788.793.788zm0 0M30.418 36.059H13.32a.79.79 0 0 0-.793.789c0 .433.356.789.793.789h17.098a.79.79 0 1 0 0-1.578zm0 0"/><path d="M46.258 39.531l-4.586-1.836v-1.008a5.427 5.427 0 0 0 2.621-3.277 2.789 2.789 0 1 0 1.637-5.04v-2.097c0-3.902-3.176-7.074-7.078-7.074h-.524c-.586 0-1.152.07-1.695.207V15.13a.79.79 0 0 0-.79-.79h-2.347a.79.79 0 0 0 0 1.579h1.555v4.086a7.089 7.089 0 0 0-3.766 5.61H1.578v-9.696h29.277a.79.79 0 0 0 0-1.578H.79a.787.787 0 0 0-.789.789v11.273c0 .438.352.79.79.79h30.464v1.171c-.133.094-.254.2-.367.317H.789a.787.787 0 0 0-.789.789v11.273c0 .438.352.79.79.79h27.46c-.668.917-1.168 2.152-1.168 3.753v3.926c0 .434.355.789.79.789h2.983a.79.79 0 0 0 0-1.578h-2.19v-3.137c0-3.285 2.581-4.226 2.687-4.262.011-.003.023-.011.035-.015l4.324-1.692c.02.024.039.047.062.07l2.266 2.208a.787.787 0 0 0 .55.226c.005 0 .009 0 .013-.004.21 0 .41-.09.558-.238l2.215-2.3 4.316 1.73c.008.004.024.008.036.012.109.039 2.695.98 2.695 4.265v3.137h-15.04a.79.79 0 1 0 0 1.578h15.829c.437 0 .789-.36.789-.797v-3.918c0-3.535-2.434-5.3-3.742-5.754zM44.496 29.43c.566.101.996.597.996 1.191 0 .594-.43 1.086-.996 1.192zm-11.664-3.157a5.501 5.501 0 0 1 5.496-5.496h.524c3.03 0 5.5 2.465 5.5 5.496v1.29c-.004 0-.004-.004-.004-.004a.217.217 0 0 1-.024-.032c-.008-.007-.015-.015-.023-.027l-.028-.027-.023-.024c-.012-.012-.023-.02-.031-.031a.119.119 0 0 1-.028-.02c-.011-.007-.023-.015-.035-.027-.008-.004-.015-.012-.027-.016l-.035-.023c-.012-.004-.024-.012-.035-.016-.012-.007-.024-.011-.036-.02-.011-.003-.027-.007-.039-.015l-.03-.011-.048-.012c-.008-.004-.015-.004-.023-.008-1.719-.39-2.254-2.61-2.262-2.629a.783.783 0 0 0-.61-.601.79.79 0 0 0-.8.312c-2.074 2.871-6.648 2.898-6.711 2.898h-.004c-.027 0-.055.004-.078.004-.008.004-.016.004-.027.004a.229.229 0 0 1-.051.008l-.035.012c-.016.004-.028.004-.043.008-.012.004-.024.011-.035.015l-.036.012c-.015.008-.027.016-.043.02-.007.003-.02.007-.027.015l-.039.024c-.008.003-.016.007-.023.015a.14.14 0 0 0-.04.028c-.007.003-.015.011-.023.015-.012.012-.023.02-.031.031-.008.008-.016.012-.024.02l-.03.031c-.009.008-.016.016-.02.028a.06.06 0 0 0-.024.03c-.008.009-.015.02-.023.028a.085.085 0 0 1-.012.02zm-.125 3.149v2.394a1.208 1.208 0 0 1-1.027-1.195c0-.605.445-1.11 1.027-1.2zm2.828 8.265l-4.707 1.844c-.262.09-.57.235-.894.434a.73.73 0 0 0-.133-.012H1.578v-9.695h28.547a2.739 2.739 0 0 0-.027.363 2.797 2.797 0 0 0 2.793 2.793c.007 0 .015-.004.023-.004a5.413 5.413 0 0 0 2.621 3.278zm4.559.555v.09l-1.52 1.578-1.46-1.422v-1.242c.32.059.652.094.988.094h1c.34 0 .668-.035.992-.094zm-.992-2.484h-1a3.821 3.821 0 0 1-3.817-3.813V28.77c1.38-.118 4.25-.59 6.293-2.485.418.824 1.149 1.82 2.34 2.309v3.351a3.818 3.818 0 0 1-3.816 3.813zm0 0M8.066 4.602a.792.792 0 0 0 0-1.582H4.082a.793.793 0 0 0-.789.792v5.231c0 .437.355.789.789.789h5.492a.79.79 0 0 0 .79-.789v-1.41a.79.79 0 1 0-1.582 0v.62h-3.91V4.603zm0 0"/><path d="M11.117 3.234A.794.794 0 0 0 10 3.27L7.379 6.05l-.813-.882a.79.79 0 1 0-1.164 1.07L6.79 7.746c.149.16.356.254.574.254h.008c.215 0 .426-.09.574-.246l3.203-3.402a.79.79 0 0 0-.03-1.118zm0 0M8.066 18.938a.79.79 0 0 0 0-1.579H4.082a.792.792 0 0 0-.789.79v5.234c0 .433.355.789.789.789h5.492c.434 0 .79-.356.79-.79V21.97a.792.792 0 0 0-1.583 0v.625h-3.91v-3.657zm0 0"/><path d="M11.117 17.574A.79.79 0 0 0 10 17.61l-2.621 2.782-.813-.883a.786.786 0 0 0-1.113-.047.786.786 0 0 0-.05 1.113l1.386 1.508a.788.788 0 0 0 .574.258h.008c.215 0 .426-.09.574-.25l3.203-3.399a.79.79 0 0 0-.03-1.117zm0 0M9.574 35.52a.793.793 0 0 0-.793.789v.62h-3.91v-3.652h3.195a.79.79 0 0 0 0-1.578H4.082a.79.79 0 0 0-.789.79v5.234c0 .433.355.789.789.789h5.492c.434 0 .79-.356.79-.79V36.31a.792.792 0 0 0-.79-.79zm0 0"/><path d="M10 31.945L7.379 34.73l-.813-.882a.786.786 0 0 0-1.113-.051.79.79 0 0 0-.05 1.117l1.386 1.508a.788.788 0 0 0 .574.258h.008c.215 0 .426-.09.574-.25l3.203-3.399A.79.79 0 1 0 10 31.945zm0 0M.79 12.855h35.054c.433 0 .789-.355.789-.789V.79a.79.79 0 0 0-.79-.789h-2.347a.79.79 0 0 0 0 1.578h1.555v9.695H1.578V1.578h29.277a.79.79 0 0 0 0-1.578H.79A.787.787 0 0 0 0 .79v11.273a.79.79 0 0 0 .79.792zm0 0"/></svg><svg width="500" height="160" viewBox="0 0 1771.6535 566.92912" id="logotrial" xmlns="http://www.w3.org/2000/svg"><g transform="translate(211.67 -428.89)" letter-spacing="0" word-spacing="0" text-anchor="middle"><g transform="matrix(.86124 0 0 .86124 -110.362 398.337)" font-weight="400" font-size="70" font-family="Great Vibes"><flowRoot transform="matrix(-1 0 0 1 640.148 -1.275)" xml:space="preserve" style="line-height:125%;-inkscape-font-specification:'Great Vibes, Normal';text-align:center" font-style="normal" font-variant="normal" font-stretch="normal" writing-mode="lr-tb" fill="#2599b9" fill-opacity=".941" stroke="#b63d39" stroke-width="5" stroke-linecap="butt" stroke-linejoin="miter" stroke-miterlimit="4" stroke-dasharray="none" stroke-opacity="1"><flowRegion><path d="M82.857 212.362h625.714v562.857H82.857z"/></flowRegion><flowPara style="line-height:125%;-inkscape-font-specification:'Roboto, Normal';text-align:center" font-style="normal" font-variant="normal" font-weight="400" font-stretch="normal" font-size="312.5" font-family="Roboto" writing-mode="lr-tb" text-anchor="middle" fill="#2599b9" fill-opacity=".941" stroke="#b63d39" stroke-width="5" stroke-miterlimit="4" stroke-dasharray="none" stroke-opacity="1">R</flowPara></flowRoot><g style="line-height:125%;-inkscape-font-specification:'Great Vibes, Normal';text-align:center"><path d="M322.93 300.553l72.632 163.652 72.632-163.652h37.994l3.047 658.67-36.405 1.355V437.56l1.731-64.916-59.736 150.078h-35.631L319.61 386.657l.868 54.969-3.046 518.952h-32.343V300.553z" style="line-height:125%;-inkscape-font-specification:'Roboto, Normal';text-align:center" font-size="312.5" font-family="Roboto" stroke="#2599b9" stroke-width="8.213" transform="matrix(.70343 0 0 .52692 41.599 15.107)" fill="#b63d39"/></g></g><flowRoot transform="translate(-265.864 14.81)" style="line-height:125%;-inkscape-font-specification:'Roboto, Light';text-align:center" xml:space="preserve" font-style="normal" font-variant="normal" font-weight="300" font-stretch="normal" font-size="187.5" font-family="Roboto" writing-mode="lr-tb" fill="#259b9f" fill-opacity=".941" stroke="none" stroke-width="1" stroke-linecap="butt" stroke-linejoin="miter" stroke-opacity="1"><flowRegion><path style="line-height:125%;-inkscape-font-specification:'Roboto, Light';text-align:center" d="M29.119 640.107h1661.237v500.711H29.119z"/></flowRegion><flowPara style="line-height:125%;-inkscape-font-specification:'Roboto, Light';text-align:center" font-style="normal" font-variant="normal" font-weight="300" font-stretch="normal" font-size="187.5" font-family="Roboto" writing-mode="lr-tb" text-anchor="middle" fill="#259b9f" fill-opacity=".941">Realty</flowPara></flowRoot></g></svg><svg width="50" height="50" viewBox="0 0 50 50" id="moving" y="285" xmlns="http://www.w3.org/2000/svg"><path d="M46.168 25.18h-.723l-1.226-3.887a8.003 8.003 0 0 0-7.66-5.613h-3.832V7.28a.977.977 0 0 0-.977-.976H4.781A4.787 4.787 0 0 0 0 11.09v27.687c0 .54.438.977.977.977H8.43a4.924 4.924 0 0 0 4.82 3.941 4.93 4.93 0 0 0 4.82-3.941h15.215a4.93 4.93 0 0 0 4.82 3.941 4.924 4.924 0 0 0 4.82-3.941h6.098c.54 0 .977-.438.977-.977v-9.765a3.836 3.836 0 0 0-3.832-3.832zm-13.441-7.547h3.832a6.059 6.059 0 0 1 5.796 4.246l1.043 3.3H32.727zM1.953 11.09a2.833 2.833 0 0 1 2.828-2.832h25.992v21.324h-5.5v-6.918a.97.97 0 0 0 1.032-.258.972.972 0 0 0-.047-1.379l-7.406-6.91h5.175a.977.977 0 0 0 0-1.953H1.953zm15.238 12.012a3.358 3.358 0 0 0-3.355 3.355v3.125h-2.777v-8.625l6.132-5.723 6.13 5.723v8.625h-2.778v-3.125a3.357 3.357 0 0 0-3.352-3.355zm1.399 6.48h-2.8v-3.125c0-.773.628-1.402 1.401-1.402.77 0 1.399.629 1.399 1.402zm-9.27 6.242a3.97 3.97 0 0 0-.148.207c-.008.008-.012.016-.016.024a3.174 3.174 0 0 0-.12.191c-.016.027-.032.05-.048.078-.027.047-.054.098-.082.145l-.047.093c-.023.043-.046.09-.066.141l-.047.094c-.02.047-.039.098-.059.144-.011.032-.027.067-.039.098-.02.05-.035.102-.054.152-.012.032-.02.063-.031.094-.02.059-.036.121-.055.18-.004.023-.012.047-.02.074-.02.082-.043.168-.058.254v.008H1.953v-1.989h7.375c-.004.004-.008.008-.008.012zm3.93 5.918a2.966 2.966 0 1 1 2.965-2.965 2.97 2.97 0 0 1-2.965 2.965zM1.953 33.86V14.117h13.574l-7.406 6.91a.976.976 0 0 0-.047 1.38.972.972 0 0 0 1.031.257v6.918h-1.59a.977.977 0 0 0 0 1.953h23.258v2.324zm32.223 1.961c-.051.07-.102.14-.149.211a.085.085 0 0 1-.011.02c-.043.066-.086.129-.125.195-.016.024-.028.05-.043.078-.028.047-.059.098-.082.145l-.047.09a5.036 5.036 0 0 0-.07.144c-.016.031-.028.063-.044.094l-.062.144-.035.098c-.02.05-.04.102-.055.152a.88.88 0 0 0-.031.094c-.02.059-.04.121-.055.184-.008.023-.015.043-.02.066a3.06 3.06 0 0 0-.058.258c-.004.004-.004.004-.004.008H18.07c0-.004 0-.004-.004-.008a2.667 2.667 0 0 0-.058-.254 3.148 3.148 0 0 0-.074-.254c-.008-.031-.02-.062-.032-.094a2.376 2.376 0 0 0-.054-.152c-.012-.031-.024-.066-.04-.098l-.058-.144c-.016-.031-.027-.063-.043-.094-.023-.05-.047-.098-.07-.144-.016-.028-.032-.059-.047-.09l-.082-.145c-.016-.027-.028-.054-.043-.078-.04-.066-.082-.129-.125-.195a.085.085 0 0 1-.012-.02l-.148-.21a.008.008 0 0 1-.008-.008h17.012a.008.008 0 0 1-.008.007zm3.93 5.922a2.97 2.97 0 0 1-2.965-2.965 2.968 2.968 0 0 1 2.964-2.965c.153 0 .305.012.454.032a2.969 2.969 0 0 1 2.511 2.933 2.968 2.968 0 0 1-2.965 2.965zm9.94-3.941h-5.12v-.008l-.059-.254c-.008-.027-.015-.05-.02-.074-.019-.059-.035-.121-.054-.18-.012-.031-.02-.062-.031-.094-.02-.05-.035-.101-.055-.152l-.039-.098c-.02-.046-.04-.097-.059-.144-.015-.031-.03-.063-.047-.094a1.174 1.174 0 0 0-.066-.14l-.047-.094c-.027-.047-.054-.098-.082-.145-.015-.027-.031-.05-.047-.078a3.173 3.173 0 0 0-.12-.191c-.005-.008-.009-.016-.016-.024a3.97 3.97 0 0 0-.149-.207c0-.004-.004-.008-.008-.011h6.02zm0-3.942h-15.32v-2.324h15.32zm0-4.277h-15.32v-2.45h13.442c1.035 0 1.879.845 1.879 1.88zm0 0"/><path d="M4.973 30.352c-.016-.063-.032-.125-.059-.184a.865.865 0 0 0-.09-.168.745.745 0 0 0-.12-.148.745.745 0 0 0-.15-.122.865.865 0 0 0-.167-.09c-.059-.027-.121-.042-.184-.058a1.03 1.03 0 0 0-.379 0c-.062.016-.125.031-.183.059a.865.865 0 0 0-.168.09.911.911 0 0 0-.27.27 1.005 1.005 0 0 0-.148.352 1.013 1.013 0 0 0-.016.186c0 .066.004.129.016.191a1.005 1.005 0 0 0 .148.352.911.911 0 0 0 .27.27c.05.035.109.066.168.09a.763.763 0 0 0 .183.054c.063.016.13.02.192.02a.765.765 0 0 0 .187-.02.763.763 0 0 0 .184-.055.865.865 0 0 0 .168-.09.745.745 0 0 0 .148-.12.93.93 0 0 0 .125-.149 1.13 1.13 0 0 0 .145-.352c.011-.062.02-.125.02-.19 0-.063-.009-.126-.02-.188zm0 0M28.484 12.95a.773.773 0 0 0-.058-.184.865.865 0 0 0-.09-.168.745.745 0 0 0-.121-.149.745.745 0 0 0-.149-.12.993.993 0 0 0-.914-.09.865.865 0 0 0-.168.09.745.745 0 0 0-.148.12.745.745 0 0 0-.121.149.865.865 0 0 0-.09.168.763.763 0 0 0-.055.183.778.778 0 0 0 0 .38.763.763 0 0 0 .055.183.866.866 0 0 0 .09.168.973.973 0 0 0 .809.438.976.976 0 0 0 .902-.606.773.773 0 0 0 .058-.184c.012-.062.016-.125.016-.187 0-.067-.004-.13-.016-.192zm0 0"/></svg><svg width="50" height="50" viewBox="0 0 50 50" id="phonecall" x="50" y="285" xmlns="http://www.w3.org/2000/svg"><path d="M48.102 39.117l-9.797-9.797a3.006 3.006 0 0 0-4.242 0l-2.547 2.547a3 3 0 0 0-.762 2.953l-.961.961c-.684.684-4.934-.363-10.07-5.504-5.141-5.136-6.188-9.386-5.508-10.07l.965-.965a2.994 2.994 0 0 0 2.953-.758l2.547-2.546a3.006 3.006 0 0 0 0-4.243l-9.797-9.797a2.982 2.982 0 0 0-2.121-.878c-.801 0-1.555.312-2.121.878L4.094 4.445c-.801.801-1.051 1.938-.758 2.953 0 0-.816.825-.856.875C-.23 11.285-.738 16.031 1.06 21.7c1.757 5.555 5.55 11.438 10.68 16.563 5.124 5.129 11.007 8.922 16.562 10.68 2.23.706 4.316 1.058 6.21 1.058 3.106 0 5.696-.941 7.555-2.797l.532-.535c.27.074.55.117.836.117.8 0 1.554-.312 2.12-.879l2.548-2.547a3.006 3.006 0 0 0 0-4.242zM8.762 4.02l9.797 9.796-2.547 2.551v-.004L6.215 6.566zm31.183 41.062c-2.16 2.156-5.972 2.512-10.738 1-5.105-1.613-10.555-5.145-15.348-9.941-4.796-4.793-8.328-10.243-9.941-15.348-1.512-4.766-1.156-8.578 1-10.738l.273-.27 7.602 7.602-.695.699h-.004c-2.887 2.894.582 9.39 5.508 14.312 3.683 3.688 8.25 6.559 11.527 6.559 1.101 0 2.058-.324 2.785-1.055l.7-.695 7.6 7.602zm3.489-1.297l-9.797-9.797 2.547-2.547 9.796 9.797-2.546 2.547zm0 0M37.969 12.031a14.99 14.99 0 0 0-10.676-4.426 1.5 1.5 0 0 0 0 3c3.23 0 6.27 1.258 8.559 3.543a12.036 12.036 0 0 1 3.543 8.559 1.5 1.5 0 0 0 3 0 14.99 14.99 0 0 0-4.426-10.676zm0 0"/><path d="M43.348 6.652A22.56 22.56 0 0 0 27.293 0a1.5 1.5 0 0 0 0 3c5.262 0 10.21 2.05 13.934 5.773A19.579 19.579 0 0 1 47 22.707a1.5 1.5 0 0 0 3 0c0-6.066-2.363-11.766-6.652-16.055zm0 0M32.59 17.406c-1.434-1.433-3.266-2.191-5.297-2.191a1.498 1.498 0 1 0 0 2.996c1.234 0 2.305.445 3.18 1.316a4.42 4.42 0 0 1 1.316 3.18 1.497 1.497 0 1 0 2.996 0 7.347 7.347 0 0 0-2.195-5.3zm0 0"/></svg><svg width="50" height="50" viewBox="0 0 50 50" id="piggy-bank" x="100" y="285" xmlns="http://www.w3.org/2000/svg"><path d="M41.262 26.426a.732.732 0 0 0-.73.73.924.924 0 0 1-1.848 0 .729.729 0 0 0-.727-.73.729.729 0 0 0-.727.73 2.383 2.383 0 0 0 2.38 2.38 2.383 2.383 0 0 0 2.378-2.38.731.731 0 0 0-.726-.73zm0 0"/><path d="M48.09 26.547l-2.047-.656a.866.866 0 0 1-.555-.563 13.184 13.184 0 0 0-1.933-3.828 14.862 14.862 0 0 0-1.293-1.527c.3-1.325.465-2.825.441-4.121-.027-1.852-.398-2.942-1.129-3.325-.394-.207-1.594-.832-8.086 2.137-.152.07-.297.156-.43.258a28.975 28.975 0 0 0-1.5-.36 9.888 9.888 0 0 0 .891-3.683.73.73 0 0 0-.695-.762.726.726 0 0 0-.758.695 8.44 8.44 0 0 1-2.476 5.614 8.435 8.435 0 0 1-3.063 1.957 21.029 21.029 0 0 0-5.86 0 8.435 8.435 0 0 1-3.062-1.957 8.424 8.424 0 0 1-2.484-5.996c0-2.262.883-4.39 2.484-5.992a8.415 8.415 0 0 1 5.992-2.485c2.266 0 4.395.883 5.993 2.484a8.5 8.5 0 0 1 1.582 2.184c.18.36.617.504.976.32a.728.728 0 0 0 .324-.976 9.913 9.913 0 0 0-1.851-2.555A9.856 9.856 0 0 0 22.527.5a9.856 9.856 0 0 0-7.023 2.91 9.86 9.86 0 0 0-2.906 7.02 9.862 9.862 0 0 0 2.906 7.023 9.882 9.882 0 0 0 1.754 1.399c-.453.117-.903.25-1.344.398a.727.727 0 0 0 .46 1.379 19.498 19.498 0 0 1 12.306 0 .73.73 0 0 0 .922-.46.724.724 0 0 0-.457-.919 20.461 20.461 0 0 0-1.348-.398 10.037 10.037 0 0 0 3.023-2.953c.2.039.399.078.594.12.262.06.523.118.781.184-.008.031-.02.063-.023.094-.356 1.683-.332 3.172.066 4.426a5.286 5.286 0 0 0 1.93 2.715c1.086.792 2.395 1.136 3.582 1.136.895 0 1.719-.195 2.32-.539.684-.387 1.258-1.203 1.711-2.43a11.76 11.76 0 0 1 2.32 4.16 2.321 2.321 0 0 0 1.497 1.512l2.05.657c.536.171.899.664.899 1.23v3.395c0 .566-.363 1.058-.899 1.23l-3.3 1.059a2.24 2.24 0 0 0-1.258 1.02c-1.297 2.241-3.336 4.097-6.059 5.51a1.128 1.128 0 0 0-.597.806l-1.059 5.593a.326.326 0 0 1-.32.27h-3.438a.326.326 0 0 1-.32-.27l-.586-3.09a1.142 1.142 0 0 0-1.3-.921 30.04 30.04 0 0 1-4.532.34c-1.137 0-2.258-.067-3.336-.192a1.16 1.16 0 0 0-1.262.926l-.554 2.937a.33.33 0 0 1-.32.27h-3.438a.326.326 0 0 1-.32-.27l-1.02-5.285a1.146 1.146 0 0 0-.586-.797c-4.645-2.476-7.098-6.617-7.098-11.972 0-2.707.594-5.098 1.758-7.114 1.09-1.879 2.684-3.43 4.73-4.617A.723.723 0 0 0 13.7 17a.723.723 0 0 0-.992-.266c-3.973 2.297-6.371 5.844-7.031 10.344-.07-.004-.137-.012-.207-.02a3.626 3.626 0 0 0-.27-1.449c-.422-1.05-1.289-1.808-2.207-1.93-.726-.097-1.414.208-1.894.84-.696.919-.582 1.645-.364 2.094.368.754 1.309 1.29 2.871 1.625-.042.063-.09.13-.14.192-.926 1.16-2.012 1.418-2.719 1.441A.761.761 0 0 0 0 30.63v.004c0 .41.32.742.73.762.051 0 .106.003.165.003.894 0 2.328-.332 3.707-2.058.218-.274.394-.563.53-.86.138.016.27.028.395.04-.023.394-.039.796-.039 1.203 0 3.027.723 5.73 2.149 8.03 1.312 2.118 3.195 3.852 5.59 5.157l.992 5.14a1.78 1.78 0 0 0 1.75 1.45h3.437c.856 0 1.59-.61 1.75-1.45l.504-2.66a29.93 29.93 0 0 0 3.219.169c1.5 0 2.996-.106 4.457-.309l.531 2.8c.16.84.895 1.45 1.75 1.45h3.438c.855 0 1.59-.61 1.75-1.45l1.03-5.448c2.907-1.54 5.099-3.559 6.513-6.004a.803.803 0 0 1 .441-.364l3.3-1.058A2.738 2.738 0 0 0 50 32.559v-3.395c0-1.2-.766-2.254-1.91-2.617zm-6.95-8.649c-.28 2.395-1.03 4.442-1.785 4.872-.859.484-2.84.578-4.328-.508-1.488-1.09-1.984-3.047-1.433-5.664a.872.872 0 0 1 .5-.61c3.644-1.668 5.742-2.21 6.523-2.21.117 0 .207.011.266.034.234.25.539 1.668.258 4.086zM2.044 25.977c-.074-.157.102-.43.215-.579.18-.234.344-.285.469-.285.023 0 .05.004.074.008.332.043.8.41 1.05 1.031.06.145.133.383.153.684-1.008-.207-1.793-.508-1.961-.86zm0 0"/><path d="M23.234 9.598V6.992c.899.067 1.23.477 1.54.477.386 0 .566-.489.566-.73 0-.63-1.235-.9-2.106-.926v-.344c0-.157-.191-.297-.386-.297-.215 0-.371.14-.371.297v.37c-1.22.13-2.438.77-2.438 2.388 0 1.64 1.285 2.101 2.438 2.511v3.016c-1.309-.102-1.653-1-2.079-1-.32 0-.59.422-.59.73 0 .63 1.079 1.489 2.669 1.512v.399c0 .156.156.296.37.296.196 0 .387-.14.387-.296v-.434c1.387-.195 2.336-1.066 2.336-2.645 0-1.742-1.218-2.308-2.336-2.718zm-.68-.243c-.679-.257-1.23-.527-1.23-1.257 0-.668.512-.989 1.23-1.078zm.602 4.372V11.02c.63.27 1.13.628 1.13 1.437 0 .73-.434 1.145-1.13 1.27zm0 0"/></svg><svg width="360" height="75" viewBox="0 0 360 75" id="resonance" y="160" xmlns="http://www.w3.org/2000/svg"><path d="M321.691 70.513c-1.81-1.103-1.553-3.91.402-4.4.455-.115 1.471.018 2.416.316 2.11.665 2.61.361 3.969-2.418 1.742-3.563 1.743-3.558-1.925-11.393-4.4-9.4-4.843-10.2-5.882-10.63-.479-.198-.871-.48-.871-.624 0-.145 2.092-.264 4.65-.264 4.416 0 5.895.3 3.604.73-1.087.203-1.677.893-1.43 1.67.516 1.62 5.312 11.382 5.497 11.189.126-.131 1-2.264 1.943-4.739 2.851-7.487 2.895-7.758 1.31-8.106-1.787-.392-.782-.744 2.126-.744 1.971 0 3 .113 3 .328 0 .18-.275.4-.612.488-.837.22-.909.38-5.397 12.091-5.117 13.352-6.21 15.515-8.412 16.654-1.197.62-3.243.55-4.388-.148zM55.466 61.086c-3.732-1.333-5.858-5.258-5.61-10.357.157-3.207 1.082-5.395 3.161-7.475 2.968-2.968 7.69-3.336 10.95-.853a7.305 7.305 0 0 1 2.837 4.98l.18 1.519h-6.942c-7.895 0-7.247-.27-6.605 2.76.46 2.175 1.2 3.533 2.624 4.82 1.404 1.267 3.254 1.854 5.066 1.606 2.092-.287 3.465-1.2 5.237-3.482.6-.772.901-.959 1.149-.711s.161.68-.329 1.646c-1.91 3.767-5.119 5.971-8.657 5.948-1.087-.007-2.465-.188-3.061-.4zm6.585-14.961c-.521-2.333-1.5-3.388-3.423-3.687-2.315-.36-4.469 1.237-5.174 3.837l-.306 1.125h9.188l-.285-1.275zM70.8 57.878c0-3.143.063-3.61.474-3.525.268.055.724.815 1.047 1.747.364 1.05.993 2.047 1.727 2.74C76.692 61.338 81 60.36 81 57.264c0-1.56-1.001-2.596-4.2-4.344-4.298-2.35-5.398-3.455-5.854-5.886-.404-2.152 1.046-4.65 3.292-5.67 1.512-.687 3.81-.715 5.705-.07 1.347.459 1.476.459 1.812 0 .805-1.102 1.045-.527 1.045 2.506 0 2.345-.09 3-.412 3-.227 0-.492-.371-.589-.825-.443-2.08-2.635-3.95-4.654-3.968-1.093-.01-2.626.843-3.003 1.672-.913 2.002.041 3.377 3.63 5.232 1.363.704 3.065 1.697 3.783 2.207 3.314 2.353 3.69 6.417.815 8.787-1.956 1.612-4.955 2.03-8.258 1.152-1.436-.382-1.698-.382-2.124.004-1.044.945-1.188.56-1.188-3.183zm23.7 3.341c-2.616-.798-5.217-3.1-6.4-5.666-.534-1.155-.648-1.96-.65-4.553 0-2.74.096-3.345.737-4.65 1.078-2.192 3.155-4.135 5.28-4.936 1.46-.55 2.218-.65 4.183-.546 3.998.21 6.779 1.909 8.483 5.182 1.13 2.171 1.307 6.447.37 8.935-.924 2.452-3.421 5.092-5.583 5.9-1.689.632-4.898.8-6.42.334zm5.96-1.727c.434-.315 1.128-1.241 1.54-2.058 1.1-2.177 1.236-6.823.287-9.776-.855-2.659-2.08-4.348-3.68-5.074-1.645-.747-2.496-.728-4.11.091-2.018 1.024-2.817 2.81-2.95 6.594-.228 6.492 2.793 11.34 6.812 10.93.72-.073 1.665-.391 2.1-.707zm34.663 1.44c-2.8-1.706-3.221-4.928-.998-7.62.99-1.2 3.796-2.75 7.738-4.279l2.214-.858-.176-2.1c-.114-1.356-.375-2.364-.736-2.849-1.034-1.384-3.936-1.555-5.186-.305-.465.465-.573.938-.518 2.264.057 1.356-.04 1.757-.503 2.096-1.388 1.015-3.458.051-3.458-1.611 0-1.207 1.295-2.924 2.929-3.885 1.3-.764 1.677-.835 4.443-.835 2.77 0 3.122.067 4.228.798 2.143 1.418 2.33 2.16 2.5 9.938.123 5.629.23 6.89.6 7.133.455.298 1.213.242 2.175-.163.396-.166.525-.076.525.365 0 1.116-2.272 2.479-4.133 2.479-1.313 0-2.288-.806-2.627-2.174l-.205-.825-.942.796c-2.45 2.068-5.963 2.798-7.87 1.636zm7.399-2.643c1.234-.729 1.478-1.588 1.478-5.203 0-3.65.013-3.63-1.988-2.809-1.957.803-3.964 2.224-4.603 3.26-.675 1.09-.79 2.74-.27 3.88.742 1.626 3.383 2.054 5.383.872zm37.89 2.847c-1.78-.573-3.798-2.398-4.808-4.35-3.549-6.854.859-15.453 8.16-15.921 2.402-.155 3.902.206 5.589 1.343 2.595 1.749 2.52 4.892-.117 4.892-1.098 0-1.895-.744-2.308-2.154-.56-1.91-1.104-2.595-2.228-2.806-3.2-.6-6.093 2.17-6.646 6.365-.437 3.316 1.27 7.412 3.63 8.715 2.976 1.64 5.708 1.117 8.157-1.563 1.95-2.133 2.538-1.804 1.09.61-2.181 3.636-4.6 5.256-7.765 5.202-.999-.016-2.238-.166-2.754-.333zm19.354-.05c-3.732-1.333-5.858-5.258-5.61-10.357.157-3.207 1.082-5.395 3.161-7.475 2.968-2.968 7.69-3.336 10.95-.853a7.305 7.305 0 0 1 2.837 4.98l.18 1.519h-6.942c-7.895 0-7.247-.27-6.605 2.76.46 2.175 1.2 3.533 2.624 4.82 1.404 1.267 3.254 1.854 5.066 1.606 2.092-.287 3.465-1.2 5.237-3.482.6-.772.901-.959 1.149-.711s.161.68-.329 1.646c-1.91 3.767-5.12 5.971-8.657 5.948-1.087-.007-2.465-.188-3.061-.4zm6.585-14.961c-.521-2.333-1.5-3.388-3.423-3.687-2.315-.36-4.469 1.237-5.174 3.837l-.306 1.125h9.188l-.285-1.275zm54.615 14.961c-2.465-.88-4.382-3.121-5.262-6.15-.658-2.264-.44-6.278.447-8.262 2.04-4.557 6.446-6.802 10.916-5.56 2.67.74 4.898 3.408 5.237 6.267l.18 1.519h-6.942c-7.895 0-7.247-.27-6.605 2.76.46 2.175 1.2 3.533 2.624 4.82 1.404 1.267 3.254 1.854 5.066 1.606 2.092-.287 3.465-1.2 5.237-3.482.6-.772.901-.959 1.149-.711s.161.68-.329 1.646c-1.91 3.767-5.12 5.971-8.657 5.948-1.087-.007-2.465-.188-3.061-.4zm6.585-14.961c-.521-2.333-1.5-3.388-3.423-3.687-2.315-.36-4.469 1.237-5.174 3.837l-.306 1.125h9.188l-.285-1.275zm10.672 14.808c-2.8-1.707-3.221-4.93-.998-7.621.99-1.2 3.796-2.75 7.738-4.279l2.214-.858-.176-2.1c-.114-1.356-.375-2.364-.736-2.849-1.034-1.384-3.936-1.555-5.186-.305-.465.465-.573.938-.518 2.264.057 1.356-.04 1.757-.503 2.096-1.388 1.015-3.458.051-3.458-1.611 0-1.207 1.295-2.924 2.929-3.885 1.299-.763 1.68-.835 4.421-.835 2.609 0 3.145.09 4.11.69.61.38 1.42 1.19 1.8 1.8.655 1.054.698 1.464.84 8.096.124 5.762.229 7.039.6 7.283.455.298 1.213.242 2.175-.163.396-.166.525-.076.525.365 0 1.116-2.272 2.479-4.133 2.479-1.313 0-2.288-.806-2.627-2.174l-.205-.825-.942.796c-2.45 2.068-5.963 2.798-7.87 1.636zm7.399-2.644c1.234-.729 1.478-1.588 1.478-5.203 0-3.65.013-3.63-1.988-2.809-1.957.803-3.964 2.224-4.603 3.26-.675 1.09-.79 2.74-.27 3.88.742 1.626 3.383 2.054 5.383.872zm25.622 2.236c-1.436-1.337-1.644-2.738-1.644-11.066V42.6h-1.2c-.66 0-1.2-.127-1.2-.283 0-.156.709-.954 1.575-1.775.866-.82 2.183-2.308 2.925-3.305.743-.997 1.451-1.818 1.575-1.825.124-.007.225 1.27.225 2.838v2.85h2.25c2.2 0 2.25.017 2.25.75s-.05.75-2.25.75h-2.25l.003 6.825c.003 7.185.223 8.853 1.248 9.402.826.442 2.305.12 3.165-.688.49-.46.787-.557 1.012-.332.435.435-1.262 2.346-2.761 3.11-.636.325-1.748.583-2.508.583-1.127 0-1.55-.171-2.414-.975zM19.2 60.904c0-.164.568-.388 1.262-.499.7-.112 1.568-.508 1.95-.89l.688-.688V33.873l-.688-.688c-.382-.382-1.25-.778-1.95-.89-.694-.111-1.262-.335-1.262-.499 0-.187 2.816-.296 7.666-.296 8.574 0 10.773.301 13.137 1.8 2.153 1.366 3.027 2.945 3.144 5.678.083 1.938-.008 2.47-.623 3.622-.892 1.672-2.604 2.907-5.193 3.746l-1.984.643 5.077 6.28c4.811 5.952 5.593 6.732 7.201 7.182 1.622.455.43.749-3.034.749h-3.708l-5.518-6.825c-4.941-6.112-5.62-6.835-6.491-6.919l-.974-.094v5.224c0 2.922.14 5.628.32 6.14.324.933 1.045 1.362 2.905 1.73.536.105.975.316.975.468 0 .16-2.721.276-6.45.276-4.049 0-6.45-.11-6.45-.296zm14.343-15.64c1.825-.36 3.516-1.653 4.152-3.175.524-1.254.52-4.337-.006-5.574-.516-1.21-1.528-2.153-2.95-2.747-1.478-.618-4.972-.91-6.014-.504l-.825.321v12.376l2.025-.191c1.114-.105 2.742-.333 3.618-.506zM109.2 60.947c0-.138.527-.41 1.172-.603 1.7-.51 1.829-1.136 1.824-8.864-.005-7.607-.113-8.076-1.878-8.223-.615-.051-1.118-.214-1.118-.362s.979-.553 2.175-.898a134.29 134.29 0 0 0 3.045-.913c1.34-.437 1.38-.396 1.38 1.404v1.689l.975-.789c2.381-1.926 3.573-2.438 5.678-2.438 2.441 0 3.358.56 4.447 2.716.72 1.426.756 1.758.9 8.564.162 7.651.21 7.87 1.82 8.225 2.09.458.583.745-3.92.745-2.64 0-4.8-.105-4.8-.233s.57-.499 1.267-.825c1.696-.792 1.797-1.316 1.68-8.681-.084-5.209-.171-6.153-.638-6.864-1.138-1.735-3.482-1.739-5.748-.009l-1.361 1.04v6.416c0 3.53.129 6.756.286 7.17.197.518.666.868 1.5 1.117.668.2 1.214.478 1.214.617 0 .138-2.228.252-4.95.252-2.723 0-4.95-.114-4.95-.252zm42.3 0c0-.138.546-.416 1.214-.616.834-.25 1.303-.599 1.5-1.117.157-.414.284-3.816.282-7.559-.005-7.796-.107-8.25-1.878-8.398-.615-.051-1.118-.214-1.118-.362s.979-.553 2.175-.898a134.29 134.29 0 0 0 3.045-.913c1.34-.437 1.38-.396 1.38 1.404v1.689l.975-.789c2.381-1.926 3.573-2.438 5.678-2.438 2.441 0 3.358.56 4.447 2.716.72 1.426.756 1.758.9 8.564.162 7.651.21 7.87 1.82 8.225 2.09.458.583.745-3.92.745-2.64 0-4.8-.105-4.8-.233s.57-.499 1.267-.825c1.696-.792 1.797-1.316 1.68-8.681-.084-5.209-.171-6.153-.638-6.864-1.138-1.735-3.482-1.739-5.748-.009l-1.361 1.04v6.416c0 3.53.129 6.756.286 7.17.197.518.666.868 1.5 1.117.668.2 1.214.478 1.214.617 0 .138-2.228.252-4.95.252s-4.95-.114-4.95-.252zm73.2-.043c0-.164.568-.388 1.262-.499.7-.112 1.568-.508 1.95-.89l.688-.688V33.873l-.688-.688c-.382-.382-1.25-.778-1.95-.89-.694-.111-1.262-.335-1.262-.499 0-.187 2.816-.296 7.666-.296 8.574 0 10.773.301 13.137 1.8 2.153 1.366 3.027 2.945 3.144 5.678.083 1.938-.008 2.47-.623 3.622-.892 1.672-2.604 2.907-5.193 3.746l-1.984.643 5.077 6.28c4.811 5.952 5.593 6.732 7.201 7.182 1.622.455.43.749-3.031.749h-3.706l-5.519-6.825c-4.946-6.116-5.62-6.835-6.494-6.919l-.975-.094v5.224c0 2.922.14 5.628.32 6.14.324.933 1.045 1.362 2.905 1.73.536.105.975.316.975.468 0 .16-2.721.276-6.45.276-4.049 0-6.45-.11-6.45-.296zm14.499-15.656c1.675-.356 3.392-1.713 3.996-3.159.524-1.254.52-4.337-.006-5.574-.516-1.21-1.528-2.153-2.95-2.747-1.478-.618-4.972-.91-6.014-.504l-.825.321v12.393l2.175-.212c1.196-.116 2.827-.35 3.624-.518zM295.2 60.932c0-.325.74-.632 1.525-.632.316 0 .845-.27 1.175-.6.581-.581.6-1 .6-13.333V33.634l-.658-.461c-.455-.319-1.012-.405-1.8-.279-1.51.242-1.524-.37-.017-.765 2.632-.69 6.038-1.529 6.2-1.529.096 0 .176 6.109.177 13.575 0 8.35.12 14.001.309 14.683.307 1.106.479 1.224 2.314 1.593 2.32.467.654.749-4.425.749-2.97 0-5.4-.12-5.4-.268zM48.995 35.33c.63-.374 2.52-1.515 4.2-2.535 1.68-1.02 3.663-2.21 4.405-2.645.743-.435 2.768-1.65 4.5-2.7a491.627 491.627 0 0 1 4.5-2.7c.743-.435 2.768-1.662 4.5-2.727 1.732-1.065 3.69-2.074 4.35-2.242.66-.168 1.47-.432 1.8-.585.33-.154 1.68-.555 3-.892 1.32-.337 2.94-.809 3.6-1.048.66-.24 1.774-.58 2.475-.757l1.275-.322v-4.794l4.125.084 4.125.083-.044.975c-.032.708.086.975.43.975.604 0 4.866-1.14 5.464-1.46.247-.134 1.732-.553 3.3-.933 1.567-.38 2.985-.795 3.15-.922.578-.445 2.486-.64 3.091-.316.333.178 4.179 4.679 8.548 10.002 4.368 5.323 8.477 10.253 9.13 10.954l1.189 1.275H212.4v.868c0 .515-.193.942-.475 1.05-.26.1-19.015.182-41.677.182h-41.203l-1.785-2.025c-.982-1.114-4.983-5.94-8.892-10.725-3.909-4.785-7.202-8.735-7.319-8.777-.116-.043-5.002 3.436-10.855 7.73a5693.623 5693.623 0 0 1-13.497 9.88l-2.853 2.07-3.147.178c-1.73.099-6.725.574-11.097 1.057-4.372.484-9.435 1.029-11.25 1.212-1.815.183-3.975.452-4.8.597-.825.146-2.445.343-3.6.439l-2.1.174 1.145-.68zM102 26.7V21h14.7v11.4H102v-5.7zm8.338 2.775l-.088-2.325-3-.068c-4.47-.101-4.35-.164-4.35 2.274 0 1.124.09 2.134.2 2.244.11.11 1.803.2 3.763.2h3.562l-.087-2.325zm5.462.107c0-2.494-.077-2.582-2.25-2.582-2.146 0-2.25.11-2.25 2.382 0 1.11.09 2.108.2 2.218.11.11 1.123.2 2.25.2h2.05v-2.218zm-5.4-5.432V21.9h-7.5v2.05c0 1.127.09 2.14.2 2.25.11.11 1.798.2 3.75.2h3.55v-2.25zm5.338-.075l.088-2.175H111.3v2.05c0 1.127.095 2.146.212 2.262.117.117 1.096.173 2.175.125l1.963-.087.088-2.175z" fill="#39c3ce"/><path d="M321.691 70.513c-1.81-1.103-1.553-3.91.402-4.4.455-.115 1.471.018 2.416.316 2.11.665 2.61.361 3.969-2.418 1.742-3.563 1.743-3.558-1.925-11.393-4.4-9.4-4.843-10.2-5.882-10.63-.479-.198-.871-.48-.871-.624 0-.145 2.092-.264 4.65-.264 4.416 0 5.895.3 3.604.73-1.087.203-1.677.893-1.43 1.67.516 1.62 5.312 11.382 5.497 11.189.126-.131 1-2.264 1.943-4.739 2.851-7.487 2.895-7.758 1.31-8.106-1.787-.392-.782-.744 2.126-.744 1.971 0 3 .113 3 .328 0 .18-.275.4-.612.488-.837.22-.909.38-5.397 12.091-5.117 13.352-6.21 15.515-8.412 16.654-1.197.62-3.243.55-4.388-.148zM55.466 61.086c-3.732-1.333-5.858-5.258-5.61-10.357.157-3.207 1.082-5.395 3.161-7.475 2.968-2.968 7.69-3.336 10.95-.853a7.305 7.305 0 0 1 2.837 4.98l.18 1.519h-6.942c-7.895 0-7.247-.27-6.605 2.76.46 2.175 1.2 3.533 2.624 4.82 1.404 1.267 3.254 1.854 5.066 1.606 2.092-.287 3.465-1.2 5.237-3.482.6-.772.901-.959 1.149-.711s.161.68-.329 1.646c-1.91 3.767-5.119 5.971-8.657 5.948-1.087-.007-2.465-.188-3.061-.4zm6.585-14.961c-.521-2.333-1.5-3.388-3.423-3.687-2.315-.36-4.469 1.237-5.174 3.837l-.306 1.125h9.188l-.285-1.275zM70.8 57.878c0-3.143.063-3.61.474-3.525.268.055.724.815 1.047 1.747.364 1.05.993 2.047 1.727 2.74C76.692 61.338 81 60.36 81 57.264c0-1.56-1.001-2.596-4.2-4.344-4.298-2.35-5.398-3.455-5.854-5.886-.404-2.152 1.046-4.65 3.292-5.67 1.512-.687 3.81-.715 5.705-.07 1.347.459 1.476.459 1.812 0 .805-1.102 1.045-.527 1.045 2.506 0 2.345-.09 3-.412 3-.227 0-.492-.371-.589-.825-.443-2.08-2.635-3.95-4.654-3.968-1.093-.01-2.626.843-3.003 1.672-.913 2.002.041 3.377 3.63 5.232 1.363.704 3.065 1.697 3.783 2.207 3.314 2.353 3.69 6.417.815 8.787-1.956 1.612-4.955 2.03-8.258 1.152-1.436-.382-1.698-.382-2.124.004-1.044.945-1.188.56-1.188-3.183zm23.7 3.341c-2.616-.798-5.217-3.1-6.4-5.666-.534-1.155-.648-1.96-.65-4.553 0-2.74.096-3.345.737-4.65 1.078-2.192 3.155-4.135 5.28-4.936 1.46-.55 2.218-.65 4.183-.546 3.998.21 6.779 1.909 8.483 5.182 1.13 2.171 1.307 6.447.37 8.935-.924 2.452-3.421 5.092-5.583 5.9-1.689.632-4.898.8-6.42.334zm5.96-1.727c.434-.315 1.128-1.241 1.54-2.058 1.1-2.177 1.236-6.823.287-9.776-.855-2.659-2.08-4.348-3.68-5.074-1.645-.747-2.496-.728-4.11.091-2.018 1.024-2.817 2.81-2.95 6.594-.228 6.492 2.793 11.34 6.812 10.93.72-.073 1.665-.391 2.1-.707zm34.663 1.44c-2.8-1.706-3.221-4.928-.998-7.62.99-1.2 3.796-2.75 7.738-4.279l2.214-.858-.176-2.1c-.114-1.356-.375-2.364-.736-2.849-1.034-1.384-3.936-1.555-5.186-.305-.465.465-.573.938-.518 2.264.057 1.356-.04 1.757-.503 2.096-1.388 1.015-3.458.051-3.458-1.611 0-1.207 1.295-2.924 2.929-3.885 1.3-.764 1.677-.835 4.443-.835 2.77 0 3.122.067 4.228.798 2.143 1.418 2.33 2.16 2.5 9.938.123 5.629.23 6.89.6 7.133.455.298 1.213.242 2.175-.163.396-.166.525-.076.525.365 0 1.116-2.272 2.479-4.133 2.479-1.313 0-2.288-.806-2.627-2.174l-.205-.825-.942.796c-2.45 2.068-5.963 2.798-7.87 1.636zm7.399-2.643c1.234-.729 1.478-1.588 1.478-5.203 0-3.65.013-3.63-1.988-2.809-1.957.803-3.964 2.224-4.603 3.26-.675 1.09-.79 2.74-.27 3.88.742 1.626 3.383 2.054 5.383.872zm37.89 2.847c-1.78-.573-3.798-2.398-4.808-4.35-3.549-6.854.859-15.453 8.16-15.921 2.402-.155 3.902.206 5.589 1.343 2.595 1.749 2.52 4.892-.117 4.892-1.098 0-1.895-.744-2.308-2.154-.56-1.91-1.104-2.595-2.228-2.806-3.2-.6-6.093 2.17-6.646 6.365-.437 3.316 1.27 7.412 3.63 8.715 2.976 1.64 5.708 1.117 8.157-1.563 1.95-2.133 2.538-1.804 1.09.61-2.181 3.636-4.6 5.256-7.765 5.202-.999-.016-2.238-.166-2.754-.333zm19.354-.05c-3.732-1.333-5.858-5.258-5.61-10.357.157-3.207 1.082-5.395 3.161-7.475 2.968-2.968 7.69-3.336 10.95-.853a7.305 7.305 0 0 1 2.837 4.98l.18 1.519h-6.942c-7.895 0-7.247-.27-6.605 2.76.46 2.175 1.2 3.533 2.624 4.82 1.404 1.267 3.254 1.854 5.066 1.606 2.092-.287 3.465-1.2 5.237-3.482.6-.772.901-.959 1.149-.711s.161.68-.329 1.646c-1.91 3.767-5.12 5.971-8.657 5.948-1.087-.007-2.465-.188-3.061-.4zm6.585-14.961c-.521-2.333-1.5-3.388-3.423-3.687-2.315-.36-4.469 1.237-5.174 3.837l-.306 1.125h9.188l-.285-1.275zm54.615 14.961c-2.465-.88-4.382-3.121-5.262-6.15-.658-2.264-.44-6.278.447-8.262 2.04-4.557 6.446-6.802 10.916-5.56 2.67.74 4.898 3.408 5.237 6.267l.18 1.519h-6.942c-7.895 0-7.247-.27-6.605 2.76.46 2.175 1.2 3.533 2.624 4.82 1.404 1.267 3.254 1.854 5.066 1.606 2.092-.287 3.465-1.2 5.237-3.482.6-.772.901-.959 1.149-.711s.161.68-.329 1.646c-1.91 3.767-5.12 5.971-8.657 5.948-1.087-.007-2.465-.188-3.061-.4zm6.585-14.961c-.521-2.333-1.5-3.388-3.423-3.687-2.315-.36-4.469 1.237-5.174 3.837l-.306 1.125h9.188l-.285-1.275zm10.672 14.808c-2.8-1.707-3.221-4.93-.998-7.621.99-1.2 3.796-2.75 7.738-4.279l2.214-.858-.176-2.1c-.114-1.356-.375-2.364-.736-2.849-1.034-1.384-3.936-1.555-5.186-.305-.465.465-.573.938-.518 2.264.057 1.356-.04 1.757-.503 2.096-1.388 1.015-3.458.051-3.458-1.611 0-1.207 1.295-2.924 2.929-3.885 1.299-.763 1.68-.835 4.421-.835 2.609 0 3.145.09 4.11.69.61.38 1.42 1.19 1.8 1.8.655 1.054.698 1.464.84 8.096.124 5.762.229 7.039.6 7.283.455.298 1.213.242 2.175-.163.396-.166.525-.076.525.365 0 1.116-2.272 2.479-4.133 2.479-1.313 0-2.288-.806-2.627-2.174l-.205-.825-.942.796c-2.45 2.068-5.963 2.798-7.87 1.636zm7.399-2.644c1.234-.729 1.478-1.588 1.478-5.203 0-3.65.013-3.63-1.988-2.809-1.957.803-3.964 2.224-4.603 3.26-.675 1.09-.79 2.74-.27 3.88.742 1.626 3.383 2.054 5.383.872zm25.622 2.236c-1.436-1.337-1.644-2.738-1.644-11.066V42.6h-1.2c-.66 0-1.2-.127-1.2-.283 0-.156.709-.954 1.575-1.775.866-.82 2.183-2.308 2.925-3.305.743-.997 1.451-1.818 1.575-1.825.124-.007.225 1.27.225 2.838v2.85h2.25c2.2 0 2.25.017 2.25.75s-.05.75-2.25.75h-2.25l.003 6.825c.003 7.185.223 8.853 1.248 9.402.826.442 2.305.12 3.165-.688.49-.46.787-.557 1.012-.332.435.435-1.262 2.346-2.761 3.11-.636.325-1.748.583-2.508.583-1.127 0-1.55-.171-2.414-.975zM19.2 60.904c0-.164.568-.388 1.262-.499.7-.112 1.568-.508 1.95-.89l.688-.688V33.873l-.688-.688c-.382-.382-1.25-.778-1.95-.89-.694-.111-1.262-.335-1.262-.499 0-.187 2.816-.296 7.666-.296 8.574 0 10.773.301 13.137 1.8 2.153 1.366 3.027 2.945 3.144 5.678.083 1.938-.008 2.47-.623 3.622-.892 1.672-2.604 2.907-5.193 3.746l-1.984.643 5.077 6.28c4.811 5.952 5.593 6.732 7.201 7.182 1.622.455.43.749-3.034.749h-3.708l-5.518-6.825c-4.941-6.112-5.62-6.835-6.491-6.919l-.974-.094v5.224c0 2.922.14 5.628.32 6.14.324.933 1.045 1.362 2.905 1.73.536.105.975.316.975.468 0 .16-2.721.276-6.45.276-4.049 0-6.45-.11-6.45-.296zm14.343-15.64c1.825-.36 3.516-1.653 4.152-3.175.524-1.254.52-4.337-.006-5.574-.516-1.21-1.528-2.153-2.95-2.747-1.478-.618-4.972-.91-6.014-.504l-.825.321v12.376l2.025-.191c1.114-.105 2.742-.333 3.618-.506zM109.2 60.947c0-.138.527-.41 1.172-.603 1.7-.51 1.829-1.136 1.824-8.864-.005-7.607-.113-8.076-1.878-8.223-.615-.051-1.118-.214-1.118-.362s.979-.553 2.175-.898a134.29 134.29 0 0 0 3.045-.913c1.34-.437 1.38-.396 1.38 1.404v1.689l.975-.789c2.381-1.926 3.573-2.438 5.678-2.438 2.441 0 3.358.56 4.447 2.716.72 1.426.756 1.758.9 8.564.162 7.651.21 7.87 1.82 8.225 2.09.458.583.745-3.92.745-2.64 0-4.8-.105-4.8-.233s.57-.499 1.267-.825c1.696-.792 1.797-1.316 1.68-8.681-.084-5.209-.171-6.153-.638-6.864-1.138-1.735-3.482-1.739-5.748-.009l-1.361 1.04v6.416c0 3.53.129 6.756.286 7.17.197.518.666.868 1.5 1.117.668.2 1.214.478 1.214.617 0 .138-2.228.252-4.95.252-2.723 0-4.95-.114-4.95-.252zm42.3 0c0-.138.546-.416 1.214-.616.834-.25 1.303-.599 1.5-1.117.157-.414.284-3.816.282-7.559-.005-7.796-.107-8.25-1.878-8.398-.615-.051-1.118-.214-1.118-.362s.979-.553 2.175-.898a134.29 134.29 0 0 0 3.045-.913c1.34-.437 1.38-.396 1.38 1.404v1.689l.975-.789c2.381-1.926 3.573-2.438 5.678-2.438 2.441 0 3.358.56 4.447 2.716.72 1.426.756 1.758.9 8.564.162 7.651.21 7.87 1.82 8.225 2.09.458.583.745-3.92.745-2.64 0-4.8-.105-4.8-.233s.57-.499 1.267-.825c1.696-.792 1.797-1.316 1.68-8.681-.084-5.209-.171-6.153-.638-6.864-1.138-1.735-3.482-1.739-5.748-.009l-1.361 1.04v6.416c0 3.53.129 6.756.286 7.17.197.518.666.868 1.5 1.117.668.2 1.214.478 1.214.617 0 .138-2.228.252-4.95.252s-4.95-.114-4.95-.252zm73.2-.043c0-.164.568-.388 1.262-.499.7-.112 1.568-.508 1.95-.89l.688-.688V33.873l-.688-.688c-.382-.382-1.25-.778-1.95-.89-.694-.111-1.262-.335-1.262-.499 0-.187 2.816-.296 7.666-.296 8.574 0 10.773.301 13.137 1.8 2.153 1.366 3.027 2.945 3.144 5.678.083 1.938-.008 2.47-.623 3.622-.892 1.672-2.604 2.907-5.193 3.746l-1.984.643 5.077 6.28c4.811 5.952 5.593 6.732 7.201 7.182 1.622.455.43.749-3.031.749h-3.706l-5.519-6.825c-4.946-6.116-5.62-6.835-6.494-6.919l-.975-.094v5.224c0 2.922.14 5.628.32 6.14.324.933 1.045 1.362 2.905 1.73.536.105.975.316.975.468 0 .16-2.721.276-6.45.276-4.049 0-6.45-.11-6.45-.296zm14.499-15.656c1.675-.356 3.392-1.713 3.996-3.159.524-1.254.52-4.337-.006-5.574-.516-1.21-1.528-2.153-2.95-2.747-1.478-.618-4.972-.91-6.014-.504l-.825.321v12.393l2.175-.212c1.196-.116 2.827-.35 3.624-.518zM295.2 60.932c0-.325.74-.632 1.525-.632.316 0 .845-.27 1.175-.6.581-.581.6-1 .6-13.333V33.634l-.658-.461c-.455-.319-1.012-.405-1.8-.279-1.51.242-1.524-.37-.017-.765 2.632-.69 6.038-1.529 6.2-1.529.096 0 .176 6.109.177 13.575 0 8.35.12 14.001.309 14.683.307 1.106.479 1.224 2.314 1.593 2.32.467.654.749-4.425.749-2.97 0-5.4-.12-5.4-.268zM48.3 35.882c0-.284.898-.428 1.058-.169.098.158-.1.287-.44.287-.34 0-.618-.053-.618-.118zm1.6-.4c.102-.166.695-.382 1.318-.48 1.802-.285 11.074-1.87 17.932-3.067 7.367-1.285 13.063-2.224 13.53-2.23.585-.009 7.946-5.654 7.627-5.85-.169-.105-.307-.03-.307.164 0 .254-.136.242-.48-.044-.703-.583-1.317-.594-1.344-.023-.02.411-.053.42-.195.048-.265-.696-.693-.86-1.78-.684-.55.09-1.001.04-1.001-.11s-.776-.242-1.725-.205c-1.12.043-1.964-.09-2.408-.38-.376-.245-.797-.376-.934-.291-.138.085-1.518-.06-3.067-.32-1.549-.26-2.962-.482-3.141-.492-.653-.036-.3-.748.6-1.21.509-.262 2.14-.809 3.625-1.216 5.781-1.584 8.715-2.452 9.075-2.685.245-.158.375-1.018.375-2.475V11.7h8.1v1.05c0 1.209.17 1.252 2.277.581 1.483-.472 6.236-1.833 9.573-2.742.99-.27 1.845-.602 1.9-.74.136-.34 1.168-.314 1.843.047.304.163 4.127 4.652 8.496 9.975 4.368 5.323 8.477 10.253 9.13 10.954l1.189 1.275H212.4v.868c0 .515-.193.942-.475 1.05-.26.1-19.015.182-41.677.182h-41.203l-1.785-2.025c-.982-1.114-4.983-5.94-8.892-10.725-3.909-4.785-7.202-8.735-7.319-8.777-.116-.043-5.002 3.436-10.855 7.73a5693.623 5693.623 0 0 1-13.497 9.88l-2.853 2.07-3.147.178c-2.81.16-11.312 1.045-23.547 2.451-6.793.781-7.452.826-7.25.5zm36.419-12.863c-.1-.1-.359-.11-.575-.024-.24.096-.168.167.181.181.316.013.493-.058.394-.157zm-9.682-1.298c.095-.154.058-.35-.082-.437-.14-.087-.255.039-.255.28 0 .505.095.55.337.157zm25.663 5.373V20.99l6.975.08 6.975.081.082 5.625c.044 3.094-.023 5.625-.15 5.625-.128 0-.232-1.18-.232-2.625V27.15h-4.8v2.625c0 1.444-.121 2.585-.27 2.536-.147-.05-.24-1.27-.205-2.71l.063-2.619-3.994.084-3.994.084v2.625c0 1.444-.101 2.626-.225 2.625-.124 0-.225-2.567-.225-5.706zm8.337-2.628l.088-2.484-3.988.084-3.987.084-.09 2.052c-.126 2.915-.1 2.933 4.26 2.832l3.63-.084.087-2.484zm5.102 2.378c.276-.175.363-.894.3-2.47l-.089-2.224h-4.8l-.09 2.052c-.054 1.255.048 2.216.262 2.475.389.468 3.743.595 4.417.167z" fill="#31b4c6"/><path d="M321.691 70.513c-1.81-1.103-1.553-3.91.402-4.4.455-.115 1.471.018 2.416.316 2.11.665 2.61.361 3.969-2.418 1.742-3.563 1.743-3.558-1.925-11.393-4.4-9.4-4.843-10.2-5.882-10.63-.479-.198-.871-.48-.871-.624 0-.145 2.092-.264 4.65-.264 4.416 0 5.895.3 3.604.73-1.087.203-1.677.893-1.43 1.67.516 1.62 5.312 11.382 5.497 11.189.126-.131 1-2.264 1.943-4.739 2.851-7.487 2.895-7.758 1.31-8.106-1.787-.392-.782-.744 2.126-.744 1.971 0 3 .113 3 .328 0 .18-.275.4-.612.488-.837.22-.909.38-5.397 12.091-5.117 13.352-6.21 15.515-8.412 16.654-1.197.62-3.243.55-4.388-.148zM55.466 61.086c-3.732-1.333-5.858-5.258-5.61-10.357.157-3.207 1.082-5.395 3.161-7.475 2.968-2.968 7.69-3.336 10.95-.853a7.305 7.305 0 0 1 2.837 4.98l.18 1.519h-6.942c-7.895 0-7.247-.27-6.605 2.76.46 2.175 1.2 3.533 2.624 4.82 1.404 1.267 3.254 1.854 5.066 1.606 2.092-.287 3.465-1.2 5.237-3.482.6-.772.901-.959 1.149-.711s.161.68-.329 1.646c-1.91 3.767-5.119 5.971-8.657 5.948-1.087-.007-2.465-.188-3.061-.4zm6.585-14.961c-.521-2.333-1.5-3.388-3.423-3.687-2.315-.36-4.469 1.237-5.174 3.837l-.306 1.125h9.188l-.285-1.275zM70.8 57.878c0-3.143.063-3.61.474-3.525.268.055.724.815 1.047 1.747.364 1.05.993 2.047 1.727 2.74C76.692 61.338 81 60.36 81 57.264c0-1.56-1.001-2.596-4.2-4.344-4.298-2.35-5.398-3.455-5.854-5.886-.404-2.152 1.046-4.65 3.292-5.67 1.512-.687 3.81-.715 5.705-.07 1.347.459 1.476.459 1.812 0 .805-1.102 1.045-.527 1.045 2.506 0 2.345-.09 3-.412 3-.227 0-.492-.371-.589-.825-.443-2.08-2.635-3.95-4.654-3.968-1.093-.01-2.626.843-3.003 1.672-.913 2.002.041 3.377 3.63 5.232 1.363.704 3.065 1.697 3.783 2.207 3.314 2.353 3.69 6.417.815 8.787-1.956 1.612-4.955 2.03-8.258 1.152-1.436-.382-1.698-.382-2.124.004-1.044.945-1.188.56-1.188-3.183zm23.7 3.341c-2.616-.798-5.217-3.1-6.4-5.666-.534-1.155-.648-1.96-.65-4.553 0-2.74.096-3.345.737-4.65 1.078-2.192 3.155-4.135 5.28-4.936 1.46-.55 2.218-.65 4.183-.546 3.998.21 6.779 1.909 8.483 5.182 1.13 2.171 1.307 6.447.37 8.935-.924 2.452-3.421 5.092-5.583 5.9-1.689.632-4.898.8-6.42.334zm5.96-1.727c.434-.315 1.128-1.241 1.54-2.058 1.1-2.177 1.236-6.823.287-9.776-.855-2.659-2.08-4.348-3.68-5.074-1.645-.747-2.496-.728-4.11.091-2.018 1.024-2.817 2.81-2.95 6.594-.228 6.492 2.793 11.34 6.812 10.93.72-.073 1.665-.391 2.1-.707zm34.663 1.44c-2.8-1.706-3.221-4.928-.998-7.62.99-1.2 3.796-2.75 7.738-4.279l2.214-.858-.176-2.1c-.114-1.356-.375-2.364-.736-2.849-1.034-1.384-3.936-1.555-5.186-.305-.465.465-.573.938-.518 2.264.057 1.356-.04 1.757-.503 2.096-1.388 1.015-3.458.051-3.458-1.611 0-1.207 1.295-2.924 2.929-3.885 1.3-.764 1.677-.835 4.443-.835 2.77 0 3.122.067 4.228.798 2.143 1.418 2.33 2.16 2.5 9.938.123 5.629.23 6.89.6 7.133.455.298 1.213.242 2.175-.163.396-.166.525-.076.525.365 0 1.116-2.272 2.479-4.133 2.479-1.313 0-2.288-.806-2.627-2.174l-.205-.825-.942.796c-2.45 2.068-5.963 2.798-7.87 1.636zm7.399-2.643c1.234-.729 1.478-1.588 1.478-5.203 0-3.65.013-3.63-1.988-2.809-1.957.803-3.964 2.224-4.603 3.26-.675 1.09-.79 2.74-.27 3.88.742 1.626 3.383 2.054 5.383.872zm37.89 2.847c-1.78-.573-3.798-2.398-4.808-4.35-3.549-6.854.859-15.453 8.16-15.921 2.402-.155 3.902.206 5.589 1.343 2.595 1.749 2.52 4.892-.117 4.892-1.098 0-1.895-.744-2.308-2.154-.56-1.91-1.104-2.595-2.228-2.806-3.2-.6-6.093 2.17-6.646 6.365-.437 3.316 1.27 7.412 3.63 8.715 2.976 1.64 5.708 1.117 8.157-1.563 1.95-2.133 2.538-1.804 1.09.61-2.181 3.636-4.6 5.256-7.765 5.202-.999-.016-2.238-.166-2.754-.333zm19.354-.05c-3.732-1.333-5.858-5.258-5.61-10.357.157-3.207 1.082-5.395 3.161-7.475 2.968-2.968 7.69-3.336 10.95-.853a7.305 7.305 0 0 1 2.837 4.98l.18 1.519h-6.942c-7.895 0-7.247-.27-6.605 2.76.46 2.175 1.2 3.533 2.624 4.82 1.404 1.267 3.254 1.854 5.066 1.606 2.092-.287 3.465-1.2 5.237-3.482.6-.772.901-.959 1.149-.711s.161.68-.329 1.646c-1.91 3.767-5.12 5.971-8.657 5.948-1.087-.007-2.465-.188-3.061-.4zm6.585-14.961c-.521-2.333-1.5-3.388-3.423-3.687-2.315-.36-4.469 1.237-5.174 3.837l-.306 1.125h9.188l-.285-1.275zm54.615 14.961c-2.465-.88-4.382-3.121-5.262-6.15-.658-2.264-.44-6.278.447-8.262 2.04-4.557 6.446-6.802 10.916-5.56 2.67.74 4.898 3.408 5.237 6.267l.18 1.519h-6.942c-7.895 0-7.247-.27-6.605 2.76.46 2.175 1.2 3.533 2.624 4.82 1.404 1.267 3.254 1.854 5.066 1.606 2.092-.287 3.465-1.2 5.237-3.482.6-.772.901-.959 1.149-.711s.161.68-.329 1.646c-1.91 3.767-5.12 5.971-8.657 5.948-1.087-.007-2.465-.188-3.061-.4zm6.585-14.961c-.521-2.333-1.5-3.388-3.423-3.687-2.315-.36-4.469 1.237-5.174 3.837l-.306 1.125h9.188l-.285-1.275zm10.672 14.808c-2.8-1.707-3.221-4.93-.998-7.621.99-1.2 3.796-2.75 7.738-4.279l2.214-.858-.176-2.1c-.114-1.356-.375-2.364-.736-2.849-1.034-1.384-3.936-1.555-5.186-.305-.465.465-.573.938-.518 2.264.057 1.356-.04 1.757-.503 2.096-1.388 1.015-3.458.051-3.458-1.611 0-1.207 1.295-2.924 2.929-3.885 1.299-.763 1.68-.835 4.421-.835 2.609 0 3.145.09 4.11.69.61.38 1.42 1.19 1.8 1.8.655 1.054.698 1.464.84 8.096.124 5.762.229 7.039.6 7.283.455.298 1.213.242 2.175-.163.396-.166.525-.076.525.365 0 1.116-2.272 2.479-4.133 2.479-1.313 0-2.288-.806-2.627-2.174l-.205-.825-.942.796c-2.45 2.068-5.963 2.798-7.87 1.636zm7.399-2.644c1.234-.729 1.478-1.588 1.478-5.203 0-3.65.013-3.63-1.988-2.809-1.957.803-3.964 2.224-4.603 3.26-.675 1.09-.79 2.74-.27 3.88.742 1.626 3.383 2.054 5.383.872zm25.622 2.236c-1.436-1.337-1.644-2.738-1.644-11.066V42.6h-1.2c-.66 0-1.2-.127-1.2-.283 0-.156.709-.954 1.575-1.775.866-.82 2.183-2.308 2.925-3.305.743-.997 1.451-1.818 1.575-1.825.124-.007.225 1.27.225 2.838v2.85h2.25c2.2 0 2.25.017 2.25.75s-.05.75-2.25.75h-2.25l.003 6.825c.003 7.185.223 8.853 1.248 9.402.826.442 2.305.12 3.165-.688.49-.46.787-.557 1.012-.332.435.435-1.262 2.346-2.761 3.11-.636.325-1.748.583-2.508.583-1.127 0-1.55-.171-2.414-.975zM19.2 60.904c0-.164.568-.388 1.262-.499.7-.112 1.568-.508 1.95-.89l.688-.688V33.873l-.688-.688c-.382-.382-1.25-.778-1.95-.89-.694-.111-1.262-.335-1.262-.499 0-.187 2.816-.296 7.666-.296 8.574 0 10.773.301 13.137 1.8 2.153 1.366 3.027 2.945 3.144 5.678.083 1.938-.008 2.47-.623 3.622-.892 1.672-2.604 2.907-5.193 3.746l-1.984.643 5.077 6.28c4.811 5.952 5.593 6.732 7.201 7.182 1.622.455.43.749-3.034.749h-3.708l-5.518-6.825c-4.941-6.112-5.62-6.835-6.491-6.919l-.974-.094v5.224c0 2.922.14 5.628.32 6.14.324.933 1.045 1.362 2.905 1.73.536.105.975.316.975.468 0 .16-2.721.276-6.45.276-4.049 0-6.45-.11-6.45-.296zm14.343-15.64c1.825-.36 3.516-1.653 4.152-3.175.524-1.254.52-4.337-.006-5.574-.516-1.21-1.528-2.153-2.95-2.747-1.478-.618-4.972-.91-6.014-.504l-.825.321v12.376l2.025-.191c1.114-.105 2.742-.333 3.618-.506zM109.2 60.947c0-.138.527-.41 1.172-.603 1.7-.51 1.829-1.136 1.824-8.864-.005-7.607-.113-8.076-1.878-8.223-.615-.051-1.118-.214-1.118-.362s.979-.553 2.175-.898a134.29 134.29 0 0 0 3.045-.913c1.34-.437 1.38-.396 1.38 1.404v1.689l.975-.789c2.381-1.926 3.573-2.438 5.678-2.438 2.441 0 3.358.56 4.447 2.716.72 1.426.756 1.758.9 8.564.162 7.651.21 7.87 1.82 8.225 2.09.458.583.745-3.92.745-2.64 0-4.8-.105-4.8-.233s.57-.499 1.267-.825c1.696-.792 1.797-1.316 1.68-8.681-.084-5.209-.171-6.153-.638-6.864-1.138-1.735-3.482-1.739-5.748-.009l-1.361 1.04v6.416c0 3.53.129 6.756.286 7.17.197.518.666.868 1.5 1.117.668.2 1.214.478 1.214.617 0 .138-2.228.252-4.95.252-2.723 0-4.95-.114-4.95-.252zm42.3 0c0-.138.546-.416 1.214-.616.834-.25 1.303-.599 1.5-1.117.157-.414.284-3.816.282-7.559-.005-7.796-.107-8.25-1.878-8.398-.615-.051-1.118-.214-1.118-.362s.979-.553 2.175-.898a134.29 134.29 0 0 0 3.045-.913c1.34-.437 1.38-.396 1.38 1.404v1.689l.975-.789c2.381-1.926 3.573-2.438 5.678-2.438 2.441 0 3.358.56 4.447 2.716.72 1.426.756 1.758.9 8.564.162 7.651.21 7.87 1.82 8.225 2.09.458.583.745-3.92.745-2.64 0-4.8-.105-4.8-.233s.57-.499 1.267-.825c1.696-.792 1.797-1.316 1.68-8.681-.084-5.209-.171-6.153-.638-6.864-1.138-1.735-3.482-1.739-5.748-.009l-1.361 1.04v6.416c0 3.53.129 6.756.286 7.17.197.518.666.868 1.5 1.117.668.2 1.214.478 1.214.617 0 .138-2.228.252-4.95.252s-4.95-.114-4.95-.252zm73.2-.043c0-.164.568-.388 1.262-.499.7-.112 1.568-.508 1.95-.89l.688-.688V33.873l-.688-.688c-.382-.382-1.25-.778-1.95-.89-.694-.111-1.262-.335-1.262-.499 0-.187 2.816-.296 7.666-.296 8.574 0 10.773.301 13.137 1.8 2.153 1.366 3.027 2.945 3.144 5.678.083 1.938-.008 2.47-.623 3.622-.892 1.672-2.604 2.907-5.193 3.746l-1.984.643 5.077 6.28c4.811 5.952 5.593 6.732 7.201 7.182 1.622.455.43.749-3.031.749h-3.706l-5.519-6.825c-4.946-6.116-5.62-6.835-6.494-6.919l-.975-.094v5.224c0 2.922.14 5.628.32 6.14.324.933 1.045 1.362 2.905 1.73.536.105.975.316.975.468 0 .16-2.721.276-6.45.276-4.049 0-6.45-.11-6.45-.296zm14.499-15.656c1.675-.356 3.392-1.713 3.996-3.159.524-1.254.52-4.337-.006-5.574-.516-1.21-1.528-2.153-2.95-2.747-1.478-.618-4.972-.91-6.014-.504l-.825.321v12.393l2.175-.212c1.196-.116 2.827-.35 3.624-.518zM295.2 60.932c0-.325.74-.632 1.525-.632.316 0 .845-.27 1.175-.6.581-.581.6-1 .6-13.333V33.634l-.658-.461c-.455-.319-1.012-.405-1.8-.279-1.51.242-1.524-.37-.017-.765 2.632-.69 6.038-1.529 6.2-1.529.096 0 .176 6.109.177 13.575 0 8.35.12 14.001.309 14.683.307 1.106.479 1.224 2.314 1.593 2.32.467.654.749-4.425.749-2.97 0-5.4-.12-5.4-.268zM51.487 35.487c-.12-.12 5.087-1.125 11.572-2.233a2863.846 2863.846 0 0 0 16.05-2.779l4.258-.765 7.441-5.45c8.4-6.153 16.306-11.92 18.549-13.53 1.124-.806 1.632-1.01 2.003-.802.273.153 4.069 4.63 8.434 9.95 4.366 5.32 8.472 10.246 9.126 10.947l1.188 1.275H212.4v.868c0 .515-.193.942-.475 1.05-.26.1-19.015.182-41.677.182h-41.203l-1.785-2.025c-.982-1.114-4.983-5.94-8.892-10.725-3.909-4.785-7.202-8.735-7.319-8.777-.116-.043-5.002 3.436-10.855 7.73a5693.623 5693.623 0 0 1-13.497 9.88l-2.853 2.07-3.147.178c-1.73.099-6.792.582-11.247 1.074A4273.78 4273.78 0 0 1 57 34.964c-2.393.255-4.562.526-4.822.603-.26.077-.57.041-.69-.08z" fill="#ae0909"/><path d="M321.691 70.513c-1.81-1.103-1.553-3.91.402-4.4.455-.115 1.471.018 2.416.316 2.11.665 2.61.361 3.969-2.418 1.742-3.563 1.743-3.558-1.925-11.393-4.4-9.4-4.843-10.2-5.882-10.63-.479-.198-.871-.48-.871-.624 0-.145 2.092-.264 4.65-.264 4.416 0 5.895.3 3.604.73-1.087.203-1.677.893-1.43 1.67.516 1.62 5.312 11.382 5.497 11.189.126-.131 1-2.264 1.943-4.739 2.851-7.487 2.895-7.758 1.31-8.106-1.787-.392-.782-.744 2.126-.744 1.971 0 3 .113 3 .328 0 .18-.275.4-.612.488-.837.22-.909.38-5.397 12.091-5.117 13.352-6.21 15.515-8.412 16.654-1.197.62-3.243.55-4.388-.148zM55.466 61.086c-3.732-1.333-5.858-5.258-5.61-10.357.157-3.207 1.082-5.395 3.161-7.475 2.968-2.968 7.69-3.336 10.95-.853a7.305 7.305 0 0 1 2.837 4.98l.18 1.519h-6.942c-7.895 0-7.247-.27-6.605 2.76.46 2.175 1.2 3.533 2.624 4.82 1.404 1.267 3.254 1.854 5.066 1.606 2.092-.287 3.465-1.2 5.237-3.482.6-.772.901-.959 1.149-.711s.161.68-.329 1.646c-1.91 3.767-5.119 5.971-8.657 5.948-1.087-.007-2.465-.188-3.061-.4zm6.585-14.961c-.521-2.333-1.5-3.388-3.423-3.687-2.315-.36-4.469 1.237-5.174 3.837l-.306 1.125h9.188l-.285-1.275zM70.8 57.878c0-3.143.063-3.61.474-3.525.268.055.724.815 1.047 1.747.364 1.05.993 2.047 1.727 2.74C76.692 61.338 81 60.36 81 57.264c0-1.56-1.001-2.596-4.2-4.344-4.298-2.35-5.398-3.455-5.854-5.886-.404-2.152 1.046-4.65 3.292-5.67 1.512-.687 3.81-.715 5.705-.07 1.347.459 1.476.459 1.812 0 .805-1.102 1.045-.527 1.045 2.506 0 2.345-.09 3-.412 3-.227 0-.492-.371-.589-.825-.443-2.08-2.635-3.95-4.654-3.968-1.093-.01-2.626.843-3.003 1.672-.913 2.002.041 3.377 3.63 5.232 1.363.704 3.065 1.697 3.783 2.207 3.314 2.353 3.69 6.417.815 8.787-1.956 1.612-4.955 2.03-8.258 1.152-1.436-.382-1.698-.382-2.124.004-1.044.945-1.188.56-1.188-3.183zm23.7 3.341c-2.616-.798-5.217-3.1-6.4-5.666-.534-1.155-.648-1.96-.65-4.553 0-2.74.096-3.345.737-4.65 1.078-2.192 3.155-4.135 5.28-4.936 1.46-.55 2.218-.65 4.183-.546 3.998.21 6.779 1.909 8.483 5.182 1.13 2.171 1.307 6.447.37 8.935-.924 2.452-3.421 5.092-5.583 5.9-1.689.632-4.898.8-6.42.334zm5.96-1.727c.434-.315 1.128-1.241 1.54-2.058 1.1-2.177 1.236-6.823.287-9.776-.855-2.659-2.08-4.348-3.68-5.074-1.645-.747-2.496-.728-4.11.091-2.018 1.024-2.817 2.81-2.95 6.594-.228 6.492 2.793 11.34 6.812 10.93.72-.073 1.665-.391 2.1-.707zm34.663 1.44c-2.8-1.706-3.221-4.928-.998-7.62.99-1.2 3.796-2.75 7.738-4.279l2.214-.858-.176-2.1c-.114-1.356-.375-2.364-.736-2.849-1.034-1.384-3.936-1.555-5.186-.305-.465.465-.573.938-.518 2.264.057 1.356-.04 1.757-.503 2.096-1.388 1.015-3.458.051-3.458-1.611 0-1.207 1.295-2.924 2.929-3.885 1.3-.764 1.677-.835 4.443-.835 2.77 0 3.122.067 4.228.798 2.143 1.418 2.33 2.16 2.5 9.938.123 5.629.23 6.89.6 7.133.455.298 1.213.242 2.175-.163.396-.166.525-.076.525.365 0 1.116-2.272 2.479-4.133 2.479-1.313 0-2.288-.806-2.627-2.174l-.205-.825-.942.796c-2.45 2.068-5.963 2.798-7.87 1.636zm7.399-2.643c1.234-.729 1.478-1.588 1.478-5.203 0-3.65.013-3.63-1.988-2.809-1.957.803-3.964 2.224-4.603 3.26-.675 1.09-.79 2.74-.27 3.88.742 1.626 3.383 2.054 5.383.872zm37.89 2.847c-1.78-.573-3.798-2.398-4.808-4.35-3.549-6.854.859-15.453 8.16-15.921 2.402-.155 3.902.206 5.589 1.343 2.595 1.749 2.52 4.892-.117 4.892-1.098 0-1.895-.744-2.308-2.154-.56-1.91-1.104-2.595-2.228-2.806-3.2-.6-6.093 2.17-6.646 6.365-.437 3.316 1.27 7.412 3.63 8.715 2.976 1.64 5.708 1.117 8.157-1.563 1.95-2.133 2.538-1.804 1.09.61-2.181 3.636-4.6 5.256-7.765 5.202-.999-.016-2.238-.166-2.754-.333zm19.354-.05c-3.732-1.333-5.858-5.258-5.61-10.357.157-3.207 1.082-5.395 3.161-7.475 2.968-2.968 7.69-3.336 10.95-.853a7.305 7.305 0 0 1 2.837 4.98l.18 1.519h-6.942c-7.895 0-7.247-.27-6.605 2.76.46 2.175 1.2 3.533 2.624 4.82 1.404 1.267 3.254 1.854 5.066 1.606 2.092-.287 3.465-1.2 5.237-3.482.6-.772.901-.959 1.149-.711s.161.68-.329 1.646c-1.91 3.767-5.12 5.971-8.657 5.948-1.087-.007-2.465-.188-3.061-.4zm6.585-14.961c-.521-2.333-1.5-3.388-3.423-3.687-2.315-.36-4.469 1.237-5.174 3.837l-.306 1.125h9.188l-.285-1.275zm54.615 14.961c-2.465-.88-4.382-3.121-5.262-6.15-.658-2.264-.44-6.278.447-8.262 2.04-4.557 6.446-6.802 10.916-5.56 2.67.74 4.898 3.408 5.237 6.267l.18 1.519h-6.942c-7.895 0-7.247-.27-6.605 2.76.46 2.175 1.2 3.533 2.624 4.82 1.404 1.267 3.254 1.854 5.066 1.606 2.092-.287 3.465-1.2 5.237-3.482.6-.772.901-.959 1.149-.711s.161.68-.329 1.646c-1.91 3.767-5.12 5.971-8.657 5.948-1.087-.007-2.465-.188-3.061-.4zm6.585-14.961c-.521-2.333-1.5-3.388-3.423-3.687-2.315-.36-4.469 1.237-5.174 3.837l-.306 1.125h9.188l-.285-1.275zm10.672 14.808c-2.8-1.707-3.221-4.93-.998-7.621.99-1.2 3.796-2.75 7.738-4.279l2.214-.858-.176-2.1c-.114-1.356-.375-2.364-.736-2.849-1.034-1.384-3.936-1.555-5.186-.305-.465.465-.573.938-.518 2.264.057 1.356-.04 1.757-.503 2.096-1.388 1.015-3.458.051-3.458-1.611 0-1.207 1.295-2.924 2.929-3.885 1.299-.763 1.68-.835 4.421-.835 2.609 0 3.145.09 4.11.69.61.38 1.42 1.19 1.8 1.8.655 1.054.698 1.464.84 8.096.124 5.762.229 7.039.6 7.283.455.298 1.213.242 2.175-.163.396-.166.525-.076.525.365 0 1.116-2.272 2.479-4.133 2.479-1.313 0-2.288-.806-2.627-2.174l-.205-.825-.942.796c-2.45 2.068-5.963 2.798-7.87 1.636zm7.399-2.644c1.234-.729 1.478-1.588 1.478-5.203 0-3.65.013-3.63-1.988-2.809-1.957.803-3.964 2.224-4.603 3.26-.675 1.09-.79 2.74-.27 3.88.742 1.626 3.383 2.054 5.383.872zm25.622 2.236c-1.436-1.337-1.644-2.738-1.644-11.066V42.6h-1.2c-.66 0-1.2-.127-1.2-.283 0-.156.709-.954 1.575-1.775.866-.82 2.183-2.308 2.925-3.305.743-.997 1.451-1.818 1.575-1.825.124-.007.225 1.27.225 2.838v2.85h2.25c2.2 0 2.25.017 2.25.75s-.05.75-2.25.75h-2.25l.003 6.825c.003 7.185.223 8.853 1.248 9.402.826.442 2.305.12 3.165-.688.49-.46.787-.557 1.012-.332.435.435-1.262 2.346-2.761 3.11-.636.325-1.748.583-2.508.583-1.127 0-1.55-.171-2.414-.975zM19.2 60.904c0-.164.568-.388 1.262-.499.7-.112 1.568-.508 1.95-.89l.688-.688V33.873l-.688-.688c-.382-.382-1.25-.778-1.95-.89-.694-.111-1.262-.335-1.262-.499 0-.187 2.816-.296 7.666-.296 8.574 0 10.773.301 13.137 1.8 2.153 1.366 3.027 2.945 3.144 5.678.083 1.938-.008 2.47-.623 3.622-.892 1.672-2.604 2.907-5.193 3.746l-1.984.643 5.077 6.28c4.811 5.952 5.593 6.732 7.201 7.182 1.622.455.43.749-3.034.749h-3.708l-5.518-6.825c-4.941-6.112-5.62-6.835-6.491-6.919l-.974-.094v5.224c0 2.922.14 5.628.32 6.14.324.933 1.045 1.362 2.905 1.73.536.105.975.316.975.468 0 .16-2.721.276-6.45.276-4.049 0-6.45-.11-6.45-.296zm14.343-15.64c1.825-.36 3.516-1.653 4.152-3.175.524-1.254.52-4.337-.006-5.574-.516-1.21-1.528-2.153-2.95-2.747-1.478-.618-4.972-.91-6.014-.504l-.825.321v12.376l2.025-.191c1.114-.105 2.742-.333 3.618-.506zM109.2 60.947c0-.138.527-.41 1.172-.603 1.7-.51 1.829-1.136 1.824-8.864-.005-7.607-.113-8.076-1.878-8.223-.615-.051-1.118-.214-1.118-.362s.979-.553 2.175-.898a134.29 134.29 0 0 0 3.045-.913c1.34-.437 1.38-.396 1.38 1.404v1.689l.975-.789c2.381-1.926 3.573-2.438 5.678-2.438 2.441 0 3.358.56 4.447 2.716.72 1.426.756 1.758.9 8.564.162 7.651.21 7.87 1.82 8.225 2.09.458.583.745-3.92.745-2.64 0-4.8-.105-4.8-.233s.57-.499 1.267-.825c1.696-.792 1.797-1.316 1.68-8.681-.084-5.209-.171-6.153-.638-6.864-1.138-1.735-3.482-1.739-5.748-.009l-1.361 1.04v6.416c0 3.53.129 6.756.286 7.17.197.518.666.868 1.5 1.117.668.2 1.214.478 1.214.617 0 .138-2.228.252-4.95.252-2.723 0-4.95-.114-4.95-.252zm42.3 0c0-.138.546-.416 1.214-.616.834-.25 1.303-.599 1.5-1.117.157-.414.284-3.816.282-7.559-.005-7.796-.107-8.25-1.878-8.398-.615-.051-1.118-.214-1.118-.362s.979-.553 2.175-.898a134.29 134.29 0 0 0 3.045-.913c1.34-.437 1.38-.396 1.38 1.404v1.689l.975-.789c2.381-1.926 3.573-2.438 5.678-2.438 2.441 0 3.358.56 4.447 2.716.72 1.426.756 1.758.9 8.564.162 7.651.21 7.87 1.82 8.225 2.09.458.583.745-3.92.745-2.64 0-4.8-.105-4.8-.233s.57-.499 1.267-.825c1.696-.792 1.797-1.316 1.68-8.681-.084-5.209-.171-6.153-.638-6.864-1.138-1.735-3.482-1.739-5.748-.009l-1.361 1.04v6.416c0 3.53.129 6.756.286 7.17.197.518.666.868 1.5 1.117.668.2 1.214.478 1.214.617 0 .138-2.228.252-4.95.252s-4.95-.114-4.95-.252zm73.2-.043c0-.164.568-.388 1.262-.499.7-.112 1.568-.508 1.95-.89l.688-.688V33.873l-.688-.688c-.382-.382-1.25-.778-1.95-.89-.694-.111-1.262-.335-1.262-.499 0-.187 2.816-.296 7.666-.296 8.574 0 10.773.301 13.137 1.8 2.153 1.366 3.027 2.945 3.144 5.678.083 1.938-.008 2.47-.623 3.622-.892 1.672-2.604 2.907-5.193 3.746l-1.984.643 5.077 6.28c4.811 5.952 5.593 6.732 7.201 7.182 1.622.455.43.749-3.031.749h-3.706l-5.519-6.825c-4.946-6.116-5.62-6.835-6.494-6.919l-.975-.094v5.224c0 2.922.14 5.628.32 6.14.324.933 1.045 1.362 2.905 1.73.536.105.975.316.975.468 0 .16-2.721.276-6.45.276-4.049 0-6.45-.11-6.45-.296zm14.499-15.656c1.675-.356 3.392-1.713 3.996-3.159.524-1.254.52-4.337-.006-5.574-.516-1.21-1.528-2.153-2.95-2.747-1.478-.618-4.972-.91-6.014-.504l-.825.321v12.393l2.175-.212c1.196-.116 2.827-.35 3.624-.518zM295.2 60.932c0-.325.74-.632 1.525-.632.316 0 .845-.27 1.175-.6.581-.581.6-1 .6-13.333V33.634l-.658-.461c-.455-.319-1.012-.405-1.8-.279-1.51.242-1.524-.37-.017-.765 2.632-.69 6.038-1.529 6.2-1.529.096 0 .176 6.109.177 13.575 0 8.35.12 14.001.309 14.683.307 1.106.479 1.224 2.314 1.593 2.32.467.654.749-4.425.749-2.97 0-5.4-.12-5.4-.268zM49.85 35.562c.188-.2 4.884-1.074 11.35-2.113 1.567-.252 4.673-.782 6.9-1.178 2.228-.396 6.548-1.154 9.6-1.685l5.55-.966 5.801-4.235c3.19-2.33 7.308-5.347 9.15-6.706 1.842-1.36 4.741-3.452 6.443-4.65 1.701-1.199 3.761-2.69 4.577-3.313 1.2-.917 1.593-1.076 2.055-.83.313.169 4.144 4.662 8.513 9.985 4.368 5.323 8.477 10.253 9.13 10.954l1.189 1.275H212.4v.868c0 .515-.193.942-.475 1.05-.26.1-19.015.182-41.677.182h-41.203l-1.785-2.025c-.982-1.114-4.983-5.94-8.892-10.725-3.909-4.785-7.202-8.735-7.319-8.777-.116-.043-5.002 3.436-10.855 7.73a5693.623 5693.623 0 0 1-13.497 9.88l-2.853 2.07-3.147.178c-2.81.16-11.312 1.045-23.547 2.451-6.161.708-7.523.817-7.3.58z" fill="#ae0909"/></svg><svg width="50" height="50" viewBox="0 0 50 50" id="tax" x="200" y="285" xmlns="http://www.w3.org/2000/svg"><path d="M41.703 0H8.297a2.457 2.457 0 0 0-2.453 2.453v45.094A2.457 2.457 0 0 0 8.297 50h25.89a.768.768 0 0 0 .551-.23l9.188-9.184a.8.8 0 0 0 .23-.555V2.453A2.457 2.457 0 0 0 41.703 0zM34.97 47.328v-5.625a.89.89 0 0 1 .886-.89h5.625zm7.62-8.078h-6.734a2.455 2.455 0 0 0-2.453 2.453v6.73H8.297a.889.889 0 0 1-.887-.886V2.453c0-.488.399-.887.887-.887h33.406c.488 0 .887.399.887.887zm0 0"/><path d="M19.988 6.68h-6.68a.782.782 0 0 0-.78.785c0 .43.347.781.78.781h2.56v7.566a.784.784 0 1 0 1.566 0V8.247h2.554a.784.784 0 1 0 0-1.566zm0 0M28.254 15.59L25.93 7.832a1.613 1.613 0 0 0-1.551-1.152h-.43c-.719 0-1.34.465-1.547 1.152l-2.328 7.758a.784.784 0 0 0 1.5.45l.332-1.114h4.516l.332 1.113a.784.784 0 0 0 1.5-.45zm-5.875-2.23l1.523-5.075c.004-.023.028-.039.047-.039h.43c.023 0 .043.016.05.04l1.524 5.073zm0 0M36.496 15.367l-2.605-3.726 2.605-3.727a.783.783 0 0 0-1.281-.898l-2.281 3.257-2.282-3.257a.784.784 0 1 0-1.285.898l2.61 3.727-2.61 3.726a.784.784 0 0 0 .64 1.23c.25 0 .493-.117.645-.335l2.282-3.258 2.28 3.258a.78.78 0 0 0 1.09.195.78.78 0 0 0 .192-1.09zm0 0M13.309 20.875H11.64a.785.785 0 0 0-.786.785c0 .434.352.781.786.781h1.668a.782.782 0 0 0 .785-.78.785.785 0 0 0-.785-.786zm0 0M13.309 24.219H11.64a.782.782 0 1 0 0 1.562h1.668a.782.782 0 1 0 0-1.562zm0 0M13.309 27.559H11.64a.782.782 0 0 0-.786.78c0 .434.352.786.786.786h1.668a.785.785 0 0 0 .785-.785.782.782 0 0 0-.785-.781zm0 0M38.36 20.875H36.69a.785.785 0 0 0-.785.785c0 .434.352.781.785.781h1.668a.782.782 0 0 0 .786-.78.785.785 0 0 0-.786-.786zm0 0M38.36 24.219H36.69a.782.782 0 1 0 0 1.562h1.668a.782.782 0 1 0 0-1.562zm0 0M38.36 27.559H36.69a.782.782 0 0 0-.785.78c0 .434.352.786.785.786h1.668a.785.785 0 0 0 .786-.785.782.782 0 0 0-.786-.781zm0 0M26.672 20.875H16.648a.784.784 0 0 0 0 1.566h10.024c.43 0 .781-.347.781-.78a.784.784 0 0 0-.781-.786zm0 0M23.328 24.219h-6.68a.781.781 0 1 0 0 1.562h6.68a.782.782 0 1 0 0-1.562zm0 0M26.672 27.559H16.648a.784.784 0 0 0 0 1.566h10.024a.784.784 0 0 0 0-1.566zm0 0M14.926 37.813V35.09c.578.187.941.57.941.922a.784.784 0 1 0 1.567 0c0-1.246-1.055-2.266-2.508-2.535v-.125a.782.782 0 0 0-.781-.786.785.785 0 0 0-.786.786v.125c-1.453.27-2.504 1.289-2.504 2.535 0 1.746 1.395 2.476 2.504 2.898v2.723c-.574-.188-.937-.57-.937-.922a.784.784 0 1 0-1.567 0c0 1.246 1.051 2.266 2.504 2.535v.125c0 .434.352.785.786.785a.782.782 0 0 0 .78-.785v-.125c1.454-.27 2.509-1.289 2.509-2.535 0-1.746-1.395-2.477-2.508-2.898zm-1.567-.61c-.777-.383-.937-.715-.937-1.191 0-.352.363-.735.937-.922zm1.567 4.43V39.52c.781.382.941.714.941 1.19 0 .352-.363.735-.941.923zm0 0M25.836 34.238h-5.848a.784.784 0 0 0 0 1.567h5.848a.784.784 0 0 0 0-1.567zm0 0M23.328 40.918h-3.34a.784.784 0 0 0 0 1.566h3.34a.784.784 0 1 0 0-1.566zm0 0M28.34 40.918h-1.668a.784.784 0 0 0 0 1.566h1.668a.784.784 0 1 0 0-1.566zm0 0M30.844 37.578H19.988a.784.784 0 0 0 0 1.567h10.856a.784.784 0 0 0 0-1.566zm0 0M27.453 25a.781.781 0 0 1-.781.781.782.782 0 1 1 0-1.562c.43 0 .781.347.781.781zm0 0M30.793 25a.781.781 0 0 1-.781.781.782.782 0 1 1 0-1.562c.43 0 .781.347.781.781zm0 0M34.133 25a.781.781 0 0 1-.781.781.782.782 0 1 1 0-1.562c.43 0 .78.347.78.781zm0 0M30.793 21.66a.781.781 0 0 1-.781.781.782.782 0 0 1-.785-.78c0-.434.351-.786.785-.786.43 0 .781.352.781.785zm0 0M34.133 21.66a.781.781 0 0 1-.781.781.782.782 0 0 1-.786-.78.784.784 0 0 1 1.566 0zm0 0M30.793 28.34a.784.784 0 1 1-1.566 0c0-.434.351-.781.785-.781.43 0 .781.347.781.78zm0 0M34.133 28.34a.784.784 0 1 1-1.567 0c0-.434.352-.781.786-.781.43 0 .78.347.78.78zm0 0"/></svg><svg width="50" height="50" viewBox="0 0 50 50" id="team" x="250" y="285" xmlns="http://www.w3.org/2000/svg"><path d="M44.422 42.031l-.82-.328A24.885 24.885 0 0 0 50 25c0-5.074-1.535-9.957-4.328-14.063a.864.864 0 0 0-.125-.18A25.123 25.123 0 0 0 41.19 5.95a.791.791 0 0 0-1.113.09.788.788 0 0 0 .09 1.113 23.44 23.44 0 0 1 3.57 3.801c-1.668.652-3.675 1.203-5.914 1.64-.617-1.84-1.379-3.558-2.273-5.105-1.203-2.09-2.586-3.773-4.098-5.008a23.289 23.289 0 0 1 6.64 3.098.79.79 0 0 0 1.098-.21.792.792 0 0 0-.214-1.098A24.873 24.873 0 0 0 25 0C18.32 0 12.043 2.602 7.324 7.324 2.602 12.043 0 18.324 0 25c0 6.21 2.27 12.117 6.41 16.71l-.812.321c-.301.106-2.84 1.121-2.84 4.352v2.828c0 .434.355.789.789.789h11.621c.039 0 .074-.004.113-.008.035.004.074.008.11.008h3.214a.79.79 0 0 0 0-1.578h-2.421v-2.75c0-2.902 2.277-3.734 2.367-3.77l.039-.011 3.844-1.504.023.023 2.043 1.992a.79.79 0 0 0 .55.223h.016a.788.788 0 0 0 .555-.242l1.961-2.035 3.84 1.539c.015.008.023.011.039.015.094.035 2.375.868 2.375 3.77v2.75H21.07a.79.79 0 0 0 0 1.578H46.47c.437 0 .789-.36.789-.797v-2.82c0-3.219-2.52-4.238-2.836-4.352zm-2.387-.957l-.781-.312v-.45a4.107 4.107 0 0 0 1.836-2.277 2.235 2.235 0 0 0 2.058-2.222 2.24 2.24 0 0 0-.824-1.731V32.68a5.33 5.33 0 0 0-4.648-5.278c.031-.535.05-1.074.062-1.613h8.668a23.322 23.322 0 0 1-6.37 15.285zm-2.851-1.777h-.72a2.536 2.536 0 0 1-2.53-2.531v-2.09c1.027-.11 2.851-.469 4.254-1.64.312.538.8 1.12 1.527 1.46v2.27a2.536 2.536 0 0 1-2.531 2.53zm.492 1.547v.437l-.88.914-.827-.804v-.547c.164.02.328.031.496.031h.719c.168 0 .332-.012.492-.031zm-4.528-7.696h-.003c-.028 0-.055.004-.083.004-.007.004-.015.004-.023.004-.02.004-.035.008-.055.008l-.035.012c-.011.004-.027.004-.039.008l-.023.011v-.515a3.744 3.744 0 0 1 3.738-3.742h.379a3.748 3.748 0 0 1 3.742 3.742v.508l-.047-.012c-.008-.004-.015-.004-.02-.008-1.1-.25-1.46-1.719-1.464-1.73a.789.789 0 0 0-1.41-.286c-1.43 1.977-4.617 1.996-4.657 1.996zm8.145 3.196V35.28a.655.655 0 0 1 0 1.063zm1.375-24.063a23.394 23.394 0 0 1 3.738 11.93h-8.668c-.066-3.555-.562-6.98-1.445-10.102 2.426-.484 4.59-1.101 6.375-1.828zm-6.508 11.93h-8.082-.004a6.44 6.44 0 0 0-4.285-2.11v-6.788c3.875-.04 7.613-.36 10.945-.918.871 3.015 1.36 6.351 1.426 9.816zm-6.965 8.242c0 .465-.316.856-.742.977v-1.953c.426.12.742.515.742.976zM25.79 1.621c3.14.336 6.098 2.668 8.395 6.652a26.318 26.318 0 0 1 2.07 4.602c-3.184.523-6.754.82-10.465.86zm-.5 22.04a4.882 4.882 0 0 1 4.875 4.878v.965a.03.03 0 0 0-.016-.016l-.035-.023c-.008-.008-.02-.012-.027-.02l-.035-.023c-.012-.004-.024-.012-.035-.016-.012-.004-.024-.011-.032-.015-.015-.008-.03-.012-.043-.016l-.03-.012a.22.22 0 0 0-.048-.015c-.008 0-.015-.004-.023-.004-1.5-.344-1.973-2.297-1.98-2.317a.784.784 0 0 0-.61-.597.782.782 0 0 0-.797.312c-1.851 2.555-5.933 2.582-5.988 2.582h-.004c-.027 0-.055 0-.078.004-.008 0-.02 0-.028.004a.229.229 0 0 0-.05.008.114.114 0 0 0-.035.008l-.043.011-.036.012-.035.012-.043.023-.027.012-.04.023c-.007.008-.015.012-.023.016-.015.008-.027.02-.039.027-.007.008-.015.012-.023.02-.008.004-.016.012-.02.016v-.98a4.882 4.882 0 0 1 4.875-4.88zm-13.45.55c.067-3.465.556-6.8 1.427-9.82 3.336.562 7.078.882 10.945.921v6.797a6.465 6.465 0 0 0-4.188 2.106c-.027-.004-.054-.004-.085-.004zm7.833 7.258v1.968a1.014 1.014 0 0 1 0-1.968zM24.21 1.62v12.113c-3.7-.039-7.277-.34-10.465-.859a26.318 26.318 0 0 1 2.07-4.602c2.297-3.984 5.254-6.316 8.395-6.652zm-5.676.867c-1.504 1.235-2.887 2.914-4.086 4.996-.894 1.551-1.652 3.266-2.273 5.11-2.235-.438-4.239-.989-5.906-1.64 3.023-4.02 7.312-7.044 12.265-8.466zM5.34 12.285c1.781.727 3.945 1.34 6.37 1.82-.886 3.122-1.382 6.551-1.448 10.106H1.594A23.268 23.268 0 0 1 5.34 12.285zm5.09 28.559c.16.02.324.031.492.031h.719c.168 0 .332-.012.492-.031v.437l-.88.914-.823-.804zm1.21-1.547h-.718a2.536 2.536 0 0 1-2.531-2.531V34.68c1.027-.114 2.851-.473 4.254-1.645.316.54.8 1.121 1.527 1.461v2.27a2.536 2.536 0 0 1-2.531 2.53zm2.032-7.86a.79.79 0 0 0-1.41-.285c-1.43 1.977-4.617 1.996-4.657 1.996h-.003c-.028 0-.055.004-.082.004-.008.004-.016.004-.024.004a.23.23 0 0 1-.055.008c-.007.004-.02.008-.03.012-.016.004-.028.004-.044.008l-.023.011v-.515a3.745 3.745 0 0 1 3.742-3.742h.375a3.748 3.748 0 0 1 3.742 3.742v.508l-.047-.012-.02-.008c-1.1-.25-1.46-1.719-1.464-1.73zM1.594 25.79h8.668c.011.543.031 1.086.062 1.625-2.574.371-4.562 2.59-4.562 5.266v1.398a2.234 2.234 0 0 0-.828 1.734c0 1.18.921 2.149 2.082 2.227.312.961.972 1.77 1.832 2.273v.446l-.86.336a23.302 23.302 0 0 1-6.394-15.305zm5.218 9.473v1.101a.659.659 0 0 1-.3-.55c0-.231.12-.434.3-.551zm7.79 10.41v2.75H4.336v-2.04c0-2.202 1.723-2.839 1.789-2.862.012-.004.023-.012.035-.016l2.98-1.164 1.583 1.539a.78.78 0 0 0 .55.226h.012a.798.798 0 0 0 .555-.242l1.496-1.55 1.848.738c-.352.719-.582 1.586-.582 2.62zm7.617-6.899l-4.188 1.641c-.535.184-1.273.606-1.93 1.305l-2.386-.957v-.45a4.116 4.116 0 0 0 1.832-2.277 2.235 2.235 0 0 0 2.058-2.222 2.24 2.24 0 0 0-.824-1.731V32.68a5.328 5.328 0 0 0-4.879-5.301 42.902 42.902 0 0 1-.062-1.59h7.137a6.415 6.415 0 0 0-.618 2.746v1.844a2.593 2.593 0 0 0 1.516 4.668 4.977 4.977 0 0 0 2.344 2.922zm-6.469-2.43v-1.062a.644.644 0 0 1 .273.532.644.644 0 0 1-.273.53zm10.578 2.981V39.375l-1.293 1.344-1.238-1.207v-.992c.265.042.539.07.816.07h.903c.277 0 .547-.028.812-.07zm-.812-2.316h-.903a3.365 3.365 0 0 1-3.363-3.36V30.86c1.262-.113 3.754-.554 5.574-2.187.383.726 1.028 1.57 2.051 2.008v2.968a3.364 3.364 0 0 1-3.36 3.36zm8.402 4.719c-.652-.704-1.395-1.125-1.926-1.313l-4.086-1.637v-.808a4.963 4.963 0 0 0 2.344-2.922 2.599 2.599 0 0 0 2.523-2.594c0-.84-.406-1.59-1.027-2.066v-1.848a6.42 6.42 0 0 0-.617-2.75h7.031a43.326 43.326 0 0 1-.062 1.598 5.327 5.327 0 0 0-4.793 5.293v1.398a2.233 2.233 0 0 0 1.254 3.96c.312.962.972 1.77 1.832 2.275v.445zm.437-6.465v1.101a.659.659 0 0 1-.3-.55c0-.231.12-.434.3-.551zm11.325 13.16H35.414v-2.75c0-1.031-.227-1.895-.574-2.61l1.844-.722 1.582 1.539a.78.78 0 0 0 .55.226h.012a.798.798 0 0 0 .555-.242l1.496-1.55 2.969 1.19c.015.005.023.009.039.013.07.027 1.793.664 1.793 2.867zm0 0"/></svg><svg width="50" height="50" viewBox="0 0 50 50" id="testimonial" x="300" y="285" xmlns="http://www.w3.org/2000/svg"><path d="M43.285 49.816c-.25-.074-.758-.222-1.133-.336-1.906-.566-4.156-1.515-5.379-2.273-.78-.484-.632-.477-2.164-.117-.746.176-1.195.215-2.566.222-1.746.008-2.309-.062-3.594-.468-2.976-.946-5.453-3.051-7.004-5.961-.742-1.387-1.308-3.133-1.515-4.66-.125-.918-.125-2.817 0-3.75.293-2.18 1.203-4.45 2.476-6.172 2.98-4.028 7.864-5.813 12.559-4.59 3.95 1.023 7.289 4.285 8.601 8.394.903 2.82.871 5.989-.09 8.829-.257.761-.687 1.699-1.18 2.57-.163.293-.179.398-.14.867.168 1.89.602 3.723 1.45 6.11.535 1.5.53 1.492.312 1.48-.098-.004-.383-.07-.633-.145zM27.844 36.492c.597-.234 1.066-1.086 1.066-1.953 0-1.32-1.015-2.387-1.969-2.066-1.093.363-1.617 1.754-1.132 3.004.21.554.574.93 1.05 1.09.356.117.516.105.985-.075zm5.347-.199c.329-.281.696-.984.715-1.363.059-1.34-.383-2.168-1.308-2.461-.508-.16-1.075.062-1.485.586-.379.484-.492.894-.453 1.675.035.665.219 1.075.7 1.54.468.457 1.312.468 1.831.023zm4.676.156c.57-.258 1.004-1.086 1.004-1.91 0-1.172-.742-2.11-1.668-2.102-1.32.012-2.11 1.95-1.344 3.297.266.473.508.68.965.832.375.125.547.106 1.043-.117zM4.965 41.813c-.024-.043.176-.66.437-1.368 1.36-3.66 2.235-7.218 2.356-9.586l.047-.949-.43-.746c-2.227-3.836-3.082-8.684-2.344-13.277C6.273 8.18 11.844 2.125 19.141.555c2.793-.602 5.652-.442 8.488.476 4.5 1.453 8.27 4.735 10.523 9.164.895 1.754 1.625 4.114 1.899 6.14.148 1.083.191 3.22.066 3.185-.043-.008-.504-.254-1.027-.547-.524-.29-1.235-.645-1.586-.785-.348-.145-.668-.31-.715-.368-.043-.058-.121-.406-.172-.77-.226-1.628-.887-3.59-1.722-5.09-.56-1.003-1.997-2.831-2.805-3.562-2.028-1.84-4.442-3.058-7.102-3.574-1.074-.21-3.722-.238-4.68-.054-2.484.484-4.261 1.238-6.109 2.59-3.023 2.206-5.094 5.585-5.785 9.456-.156.88-.18 3.778-.039 4.649.371 2.226 1.156 4.152 2.477 6.039.968 1.387.882 1.098.703 2.371-.2 1.445-.688 3.96-.977 5.043-.125.473-.2.895-.168.937.149.188 2.86-1.164 4.688-2.343.726-.465 1.332-.828 1.347-.805.02.023.043.77.051 1.656.008.89.043 1.883.078 2.211l.059.594-.774.492c-1.539.985-3.988 2.117-6.187 2.856-1.477.5-2.219.726-3.332 1.03-1.422.392-1.324.372-1.375.267zm0 0"/></svg><svg width="50" height="50" viewBox="0 0 50 50" id="tools" x="350" y="285" xmlns="http://www.w3.org/2000/svg"><path d="M47.148 37.758a6.522 6.522 0 0 0-3.445-1.188c-4.562-2.988-7.55-5.23-9.297-6.976l-5.36-5.36 3.255-3.64a5.618 5.618 0 0 0 1.937.672c.5.082.836.082 1.168.082.668 0 .832 0 1.5.582-.336.25-.5.668-.5 1.082 0 .418.164.918.5 1.25l2.914 2.918c.418.496 1.082.746 1.75.746.664 0 1.332-.25 1.75-.832l5.91-5.914c.5-.414.75-1.082.75-1.746 0-.668-.25-1.25-.75-1.75l-2.914-2.918a1.643 1.643 0 0 0-1.164-.496c-.418 0-.836.25-1.168.496-.664-.582-.664-.746-.664-1.414 0-.332 0-.75-.168-1.25-.168-1.165-.75-2.332-1.668-3.247l-2.996-3c-1.75-1.75-2.582-2.582-4.832-3.582C28.824.023 23.91.441 16.75 3.691c-.418.164-.586.5-.5.914.082.418.414.668.832.668h1.082c3.664 0 5.582 0 8.914 3.332 1.457 1.457 1.5 3.696.192 5.34a.762.762 0 0 0-.442.239l-3.703 4.129-2.797-2.797c-3.07-3.075-5.234-5.98-6.898-9.22a6.587 6.587 0 0 0-1.93-4.355C10.086.523 8.086-.14 6.086.023c-.25.086-.5.25-.582.418a.75.75 0 0 0 0 .832l2.332 4.164c-.5 1.086-1.664 1.75-2.832 1.668l-2.414-4c-.086-.25-.418-.414-.668-.414-.25-.086-.5.082-.664.332-2 3-1.25 6.997 1.746 9.079a6.635 6.635 0 0 0 3.379 1.234c.012.004.023.012.039.016 3.246 1.664 6.16 3.832 9.242 6.914l3.047 2.976L1.008 43.004c-.668.664-1 1.582-1 2.5 0 .914.332 1.746 1 2.414l1.164 1.164c.668.586 1.5.918 2.332.918.832 0 1.75-.332 2.418-1l17.683-19.797 5.137 5.137c1.746 1.75 3.992 4.828 6.988 9.316a6.565 6.565 0 0 0 1.926 4.262c1.246 1.25 2.914 1.914 4.664 1.914h.664c.25 0 .5-.164.668-.414a.765.765 0 0 0 0-.832l-2.418-4.082c.586-1.082 1.668-1.75 2.918-1.668l2.332 4c.082.25.414.414.664.414.336-.082.586-.164.75-.414 2-3 1.168-6.996-1.75-9.078zM28.16 7.27c-2.664-2.582-4.664-3.415-6.914-3.665 4.746-1.5 8.246-1.414 11.746.168 1.996.832 2.664 1.5 4.414 3.25l2.996 2.997c.668.668 1.082 1.5 1.168 2.332.082.418.082.75.082 1 0 .918.082 1.582 1.082 2.582.336.332.836.5 1.25.5.5 0 .918-.168 1.168-.5l2.914 2.914a.76.76 0 0 1 .25.586c0 .25-.082.414-.25.582l-5.914 5.914a.805.805 0 0 1-1.164 0l-2.918-2.918c.336-.25.5-.664.418-1.164 0-.418-.168-.918-.5-1.25-1-1-1.668-1.082-2.582-1.082-.25 0-.582 0-1-.082-.918-.086-1.664-.5-2.332-1.168l-3.582-3.582c1.832-2.246 1.668-5.414-.332-7.414zM2.008 5.273L3.754 8.27c.168.25.418.418.668.418h.418c1.914.082 3.664-.918 4.496-2.583l.168-.418a.633.633 0 0 0 0-.75L7.668 1.773c1 .168 1.918.668 2.668 1.418.86.93 1.406 2.106 1.441 3.372a.863.863 0 0 0-.027.21c0 .383-.047.762-.133 1.125a5.103 5.103 0 0 1-2.113 2.954c-1.668 1.085-3.918 1.085-5.582-.082-1.75-1.25-2.5-3.5-1.914-5.497zm14.824 13.825c-2.5-2.582-4.996-4.578-7.664-6.164a9.4 9.4 0 0 0 1.332-.664 6.56 6.56 0 0 0 2.582-3.25c1.586 2.668 3.582 5.164 6.082 7.664l2.86 2.859-2.243 2.504zM5.754 47.75c-.668.668-1.75.75-2.414.086L2.172 46.75a1.64 1.64 0 0 1-.5-1.164c0-.5.168-.918.582-1.332l.473-.527 1.195 1.191c.168.168.332.25.582.25.25 0 .418-.082.582-.25a.798.798 0 0 0 0-1.164l-1.258-1.262 1.102-1.23 1.324 1.324c.168.168.332.25.582.25.25 0 .418-.082.582-.25a.798.798 0 0 0 0-1.164l-1.387-1.39 21.422-23.97 3.5 3.497-3.437 3.847a.83.83 0 0 0-.274.192l-3.332 3.746a.909.909 0 0 0-.203.32zm19.992-19.82l2.277-2.551 5.383 5.379c1.5 1.586 4.082 3.582 7.828 6.082a6.462 6.462 0 0 0-1.496.75c-1.035.644-1.765 1.543-2.277 2.535-.008.012-.012.027-.02.043a2.568 2.568 0 0 0-.09.18 3.065 3.065 0 0 0-.117.257c-.027.06-.05.118-.074.176-.004.012-.008.02-.012.028-.027.066-.05.129-.078.195a141.92 141.92 0 0 0-1.363-1.965l1.113-1.117a.798.798 0 0 0 0-1.164.798.798 0 0 0-1.164 0l-.93.926c-.343-.47-.68-.91-1.003-1.329l.765-.765a.798.798 0 0 0 0-1.164.798.798 0 0 0-1.164 0l-.636.633a28.768 28.768 0 0 0-1.696-1.883zm22.32 16.656l-1.75-3c-.164-.25-.414-.414-.664-.414h-.418c-1.914-.168-3.664.914-4.496 2.582l-.168.414a.621.621 0 0 0 0 .75l1.832 3.168c-1-.168-1.914-.668-2.664-1.418-.843-.914-1.386-2.063-1.441-3.297a.819.819 0 0 0 .023-.2 5.03 5.03 0 0 1 .918-2.882 5.28 5.28 0 0 1 1.332-1.285c.832-.582 1.75-.832 2.75-.832.996 0 1.996.332 2.828.918 1.75 1.25 2.5 3.496 1.918 5.496zm0 0"/></svg><svg width="50" height="50" viewBox="0 0 50 50" id="unwanted" x="400" y="285" xmlns="http://www.w3.org/2000/svg"><path d="M49.129 33.188c-.684-.575-1.684-.836-2.625-.672l-20.395 4.082-3.855-3.852a.809.809 0 0 0-.586-.246H.832a.833.833 0 0 0-.832.832v12.5c0 .461.371.836.832.836H12.5c.46 0 .832-.375.832-.836V45h2.29l8.98 4.898A.828.828 0 0 0 25 50h2.5c.152 0 .3-.04.43-.121l20.824-12.492C49.547 36.926 50 36.055 50 35c0-.695-.309-1.34-.871-1.813zM8.332 45H1.668V34.168h6.664zm3.336 0H10V34.168h1.668zm36.234-9.047L27.27 48.332h-2.06l-8.976-4.898a.854.854 0 0 0-.402-.102h-2.5v-9.164h7.988l7.258 7.254c.367.367.59.773.59 1.078 0 .84-.828 1.668-1.668 1.668-.305 0-.707-.223-1.078-.59l-5-5-1.176 1.176 5 5.004c.695.691 1.496 1.074 2.254 1.074 1.777 0 3.332-1.555 3.332-3.332 0-.762-.383-1.563-1.078-2.254l-2.23-2.234 19.285-3.86c.437-.078.941.051 1.25.313.273.23.273.46.273.535 0 .21-.039.727-.43.953zm0 0M25 20.832a.83.83 0 0 1-.832-.832.83.83 0 0 1 .832-.832.83.83 0 0 1 .832.832.834.834 0 0 0 1.668 0c0-1.086-.7-2-1.668-2.348v-.984h-1.664v.984A2.499 2.499 0 0 0 22.5 20c0 1.379 1.121 2.5 2.5 2.5a.834.834 0 1 1 0 1.668.834.834 0 0 1-.832-.836H22.5c0 1.086.7 2.004 1.668 2.348v.988h1.664v-.988a2.495 2.495 0 0 0 1.668-2.348c0-1.379-1.121-2.5-2.5-2.5zm0 0"/><path d="M45.516 16.012L25.516.18a.833.833 0 0 0-1.032 0l-7.816 6.187V4.168a.837.837 0 0 0-.836-.836h-5a.834.834 0 0 0-.832.836v7.477l-5.516 4.367a.84.84 0 0 0-.316.656V22.5c0 .32.184.61.469.75.289.137.629.102.879-.098l3.652-2.886V30c0 .46.371.832.832.832h30a.83.83 0 0 0 .832-.832v-9.734l3.652 2.886c.149.121.332.18.516.18a.85.85 0 0 0 .363-.082.837.837 0 0 0 .469-.75v-5.832a.84.84 0 0 0-.316-.656zM11.668 5H15v2.688l-3.332 2.636zm17.5 24.168h-8.336V18.332A4.171 4.171 0 0 1 25 14.168a4.171 4.171 0 0 1 4.168 4.164zm10 0h-8.336V18.332A5.84 5.84 0 0 0 25 12.5a5.84 5.84 0 0 0-5.832 5.832v10.836h-8.336V18.945L25 7.73l14.168 11.215zm5-8.39l-3.648-2.891h-.004l-15-11.875a.833.833 0 0 0-1.032 0l-15 11.875H9.48l-3.648 2.89V17.07l5.516-4.367h.004l5-3.957v-.004L25 1.895 44.168 17.07zm0 0"/><path d="M16.668 19.168h-3.336A.83.83 0 0 0 12.5 20v3.332c0 .461.371.836.832.836h3.336c.46 0 .832-.375.832-.836V20a.83.83 0 0 0-.832-.832zm-.836 3.332h-1.664v-1.668h1.664zm0 0M36.668 19.168h-3.336A.83.83 0 0 0 32.5 20v3.332c0 .461.371.836.832.836h3.336c.46 0 .832-.375.832-.836V20a.83.83 0 0 0-.832-.832zm-.836 3.332h-1.664v-1.668h1.664zm0 0"/></svg></svg>